<svg width="100%" height="100%" id="svg" viewBox="0 0 1440 690" xmlns="http://www.w3.org/2000/svg" stroke-width="0"><style>@keyframes pathAnim-0{0%,to{d:path(&quot;M0 700V175c118.679-5.393 237.357-10.786 359-18s246.25-16.25 356-8 204.643 33.786 323 41 260.179-3.893 402-15v525Z&quot;)}25%{d:path(&quot;M0 700V175c139.714 10.964 279.429 21.929 413 20s261-16.75 351-12 142.571 29.071 249 31 266.714-18.536 427-39v525Z&quot;)}50%{d:path(&quot;M0 700V175c122 18.214 244 36.429 359 47s223 13.5 343-3 252-52.429 377-63 243 4.214 361 19v525Z&quot;)}75%{d:path(&quot;M0 700V175c143.929-20.429 287.857-40.857 396-43s180.5 14 287 23 247.143 10.857 379 13 254.929 4.571 378 7v525Z&quot;)}}@keyframes pathAnim-1{0%,to{d:path(&quot;M0 700V350c133.071-9.464 266.143-18.929 386-33s226.5-32.75 356-18 281.857 62.929 402 77 208.071-5.964 296-26v350Z&quot;)}25%{d:path(&quot;M0 700V350c109.393 15.893 218.786 31.786 341 22s257.25-45.25 380-51 233.214 18.214 351 28 242.893 5.393 368 1v350Z&quot;)}50%{d:path(&quot;M0 700V350c161.536 23.464 323.071 46.929 425 29s144.25-77.25 258-72 298.929 75.071 437 93 229.036-16.036 320-50v350Z&quot;)}75%{d:path(&quot;M0 700V350c142.821-22.679 285.643-45.357 397-40s191.25 38.75 302 59 252.357 27.357 381 22 244.321-23.179 360-41v350Z&quot;)}}@keyframes pathAnim-2{0%,to{d:path(&quot;M0 700V525c150.321 35 300.643 70 425 58s222.75-71 323-101 202.357-31 318-19 244.821 37 374 62v175Z&quot;)}25%{d:path(&quot;M0 700V525c101.571 31.036 203.143 62.071 340 59s309-40.25 436-67 208.857-43.071 312-40 227.571 25.536 352 48v175Z&quot;)}50%{d:path(&quot;M0 700V525c129.75-17.571 259.5-35.143 383-26s240.75 45 361 59 243.5 6.143 360-3 226.25-19.571 336-30v175Z&quot;)}75%{d:path(&quot;M0 700V525c161.357 25.071 322.714 50.143 426 45s148.5-40.5 244-56 241.286-11.143 378-6 264.357 11.071 392 17v175Z&quot;)}}</style><defs><linearGradient id="gradient" x1="2%" y1="63%" x2="98%" y2="37%"><stop offset="5%" stop-color="#00b0f0"/><stop offset="95%" stop-color="#0038bf"/></linearGradient></defs><path d="M0 700V175c118.679-5.393 237.357-10.786 359-18s246.25-16.25 356-8 204.643 33.786 323 41 260.179-3.893 402-15v525Z" fill="url(#gradient)" fill-opacity=".4" style="animation:pathAnim-0 4s;animation-timing-function:linear;animation-iteration-count:infinite"/><path d="M0 700V350c133.071-9.464 266.143-18.929 386-33s226.5-32.75 356-18 281.857 62.929 402 77 208.071-5.964 296-26v350Z" fill="url(#gradient)" fill-opacity=".53" style="animation:pathAnim-1 4s;animation-timing-function:linear;animation-iteration-count:infinite"/><path d="M0 700V525c150.321 35 300.643 70 425 58s222.75-71 323-101 202.357-31 318-19 244.821 37 374 62v175Z" fill="url(#gradient)" style="animation:pathAnim-2 4s;animation-timing-function:linear;animation-iteration-count:infinite"/></svg>