<svg width="21" height="21" viewBox="0 0 21 21" fill="none" xmlns="http://www.w3.org/2000/svg"><path d="M10.5 0C16.299 0 21 4.701 21 10.5c0 5.789-4.685 10.483-10.47 10.499l-.029.001-.001-.001V21C4.701 21 0 16.299 0 10.5 0 4.882 4.412.295 9.96.014zm2.874 16.23a30 30 0 0 0-5.766-.058q.184.572.402 1.068c.37.848.797 1.495 1.238 1.921.438.423.86.602 1.252.603h.001c.393 0 .816-.18 1.254-.603.441-.427.866-1.074 1.237-1.92q.205-.473.382-1.011m-7.015.085a20 20 0 0 0-2.611.525 9.26 9.26 0 0 0 4.048 2.522 8.5 8.5 0 0 1-.918-1.627 13 13 0 0 1-.519-1.42m8.261.073q-.222.72-.496 1.347a8.5 8.5 0 0 1-.918 1.627 9.26 9.26 0 0 0 4.002-2.477 31 31 0 0 0-2.588-.497m.814-5.27a21 21 0 0 1-.494 4.069 32 32 0 0 1 3.136.64 9.2 9.2 0 0 0 1.666-4.71zm-14.176 0a9.2 9.2 0 0 0 1.648 4.687c.756-.247 1.824-.503 3.138-.692a21 21 0 0 1-.476-3.996zm5.547 0c.038 1.39.205 2.692.471 3.845a31 31 0 0 1 6.435.06 19.6 19.6 0 0 0 .486-3.906zM2.666 5.555a9.2 9.2 0 0 0-1.408 4.327h4.31c.033-1.259.168-2.461.386-3.567-1.418-.208-2.543-.496-3.288-.76m11.14.852c-2.49.288-4.747.25-6.623.062a20 20 0 0 0-.378 3.413h7.392a20 20 0 0 0-.39-3.475m4.523-.86a31 31 0 0 1-3.296.693c.227 1.126.367 2.355.4 3.642h4.31a9.2 9.2 0 0 0-1.414-4.334M10.5 1.236c-.392 0-.814.18-1.252.604-.441.426-.867 1.073-1.238 1.92q-.298.681-.532 1.499a29.8 29.8 0 0 0 6.029-.06 12 12 0 0 0-.515-1.438c-.37-.847-.796-1.495-1.237-1.921-.438-.424-.861-.604-1.254-.604zm-2.704.402A9.27 9.27 0 0 0 3.433 4.51c.682.212 1.635.43 2.803.597.182-.666.397-1.284.642-1.843a8.5 8.5 0 0 1 .918-1.628m5.41 0a8.5 8.5 0 0 1 .918 1.628c.236.538.442 1.132.62 1.771a30 30 0 0 0 2.793-.558 9.27 9.27 0 0 0-4.33-2.841" fill="#fff"/></svg>