<svg width="16" height="16" viewBox="0 0 16 16" fill="none" xmlns="http://www.w3.org/2000/svg"><path d="M6.212 0a.89.89 0 0 1 .84.597l.492 1.413a.89.89 0 0 0 .84.597h6.727a.89.89 0 0 1 .889.89v9.896c0 .49-.398.888-.889.888h-2.188c.173-.69.173-1.644.173-3.022 0-2.235 0-3.352-.737-4.046-.738-.694-1.925-.694-4.3-.694s-3.561 0-4.3.694c-.737.694-.737 1.811-.737 4.046 0 1.378 0 2.331.173 3.022H.89a.89.89 0 0 1-.89-.887V.889C0 .398.398 0 .889 0z" fill="#00B0F0"/><path fill-rule="evenodd" clip-rule="evenodd" d="M8.059 7.348c2.04 0 3.059 0 3.692.634.634.633.634 1.653.634 3.692s0 3.059-.634 3.693C11.118 16 10.098 16 8.06 16S5 16 4.366 15.367c-.633-.634-.633-1.654-.633-3.693s0-3.059.633-3.692C5 7.348 6.02 7.348 8.06 7.348m-1.952 3.336L7.55 9.242a.72.72 0 0 1 1.02 0l1.442 1.442a.72.72 0 1 1-1.02 1.02l-.211-.212v2.105a.72.72 0 0 1-1.442 0v-2.105l-.211.211a.721.721 0 0 1-1.02-1.02" fill="#00B0F0"/></svg>