<svg viewBox="0 0 231 231" fill="none" xmlns="http://www.w3.org/2000/svg"><path fill-rule="evenodd" clip-rule="evenodd" d="M108.281 0c25.576 0 47.637 14.82 58.234 36.296C202.479 38.426 231 68.174 231 104.672c0 29.472-17.631 54.6-42.343 64.3v-2.184c0-34.336 0-51.504-10.7-62.171s-27.921-10.668-62.362-10.668-51.663 0-62.362 10.668-10.7 27.835-10.7 62.171v3.78C17.862 163.06 0 141.21 0 115.5c0-26.06 18.35-48.077 43.55-55.26C45.985 26.58 74 0 108.282 0" fill="#00B0F0"/><path fill-rule="evenodd" clip-rule="evenodd" d="M115.5 231c-29.674 0-44.511 0-53.73-9.177-9.218-9.178-9.218-23.948-9.218-53.488s0-44.311 9.218-53.488 24.056-9.177 53.73-9.177 44.511 0 53.73 9.177 9.219 23.948 9.219 53.488 0 44.31-9.219 53.488S145.174 231 115.5 231m28.401-48.318-20.982 20.889c-4.097 4.078-10.741 4.078-14.837 0L87.1 182.682a10.41 10.41 0 0 1 0-14.77c4.096-4.078 10.739-4.078 14.836 0l3.072 3.06v-30.489c0-5.768 4.698-10.443 10.492-10.443s10.492 4.675 10.492 10.443v30.489l3.072-3.06c4.098-4.078 10.741-4.078 14.837 0a10.41 10.41 0 0 1 0 14.77" fill="#00B0F0"/></svg>