<svg width="24" height="25.798" viewBox="0 0 24 25.798" fill="none" xmlns="http://www.w3.org/2000/svg"><path d="m22.617 14.775-.485-.28c-.577-.333-.921-.93-.921-1.596s.345-1.263.921-1.596l.485-.28a2.763 2.763 0 0 0 1.011-3.776l-.921-1.596a2.767 2.767 0 0 0-3.775-1.012l-.484.279a1.82 1.82 0 0 1-1.842 0 1.82 1.82 0 0 1-.921-1.596v-.559A2.767 2.767 0 0 0 12.922 0H11.08a2.766 2.766 0 0 0-2.763 2.764v.56c0 .666-.345 1.262-.921 1.596a1.82 1.82 0 0 1-1.842 0l-.485-.28a2.767 2.767 0 0 0-3.776 1.012L.371 7.247a2.763 2.763 0 0 0 1.011 3.776l.485.28c.577.333.921.93.921 1.596s-.345 1.263-.921 1.596l-.485.28a2.764 2.764 0 0 0-1.01 3.776l.921 1.596a2.767 2.767 0 0 0 3.775 1.012l.485-.279a1.82 1.82 0 0 1 1.842 0c.577.333.921.93.921 1.596v.559a2.767 2.767 0 0 0 2.763 2.764h1.842a2.767 2.767 0 0 0 2.763-2.764v-.56c0-.666.345-1.262.921-1.596a1.82 1.82 0 0 1 1.842 0l.484.28a2.767 2.767 0 0 0 3.775-1.012l.921-1.596a2.763 2.763 0 0 0-1.011-3.776M12 17.506c-2.54 0-4.606-2.067-4.606-4.607S9.46 8.292 12 8.292s4.606 2.067 4.606 4.607S14.54 17.506 12 17.506" fill="#fff"/></svg>