<svg width="64" height="64" viewBox="0 0 64 64" fill="none" xmlns="http://www.w3.org/2000/svg"><path d="M2 21.267C2 18.91 3.79 17 6 17h52c2.21 0 4 1.91 4 4.267v7.466C62 31.09 60.21 33 58 33H6c-2.21 0-4-1.91-4-4.267zM20.5 60v-2.25a1.5 1.5 0 0 1 3 0V60a1.5 1.5 0 0 1-3 0m0-6.75v-4.5a1.5 1.5 0 0 1 3 0v4.5a1.5 1.5 0 0 1-3 0m0-9V42a1.5 1.5 0 0 1 3 0v2.25a1.5 1.5 0 0 1-3 0" fill="#fff"/><path d="M9 48.5h2.813a1.5 1.5 0 0 1 0 3H9a1.5 1.5 0 0 1 0-3m8.438 0h5.625a1.5 1.5 0 0 1 0 3h-5.625a1.5 1.5 0 0 1 0-3m11.25 0h5.625a1.5 1.5 0 0 1 0 3h-5.626a1.5 1.5 0 0 1 0-3m11.25 0h5.624a1.5 1.5 0 0 1 0 3h-5.624a1.5 1.5 0 0 1 0-3m11.25 0H54a1.5 1.5 0 0 1 0 3h-2.812a1.5 1.5 0 0 1 0-3" fill="#fff"/><path d="M40.5 60v-2.25a1.5 1.5 0 0 1 3 0V60a1.5 1.5 0 0 1-3 0m0-6.75v-4.5a1.5 1.5 0 0 1 3 0v4.5a1.5 1.5 0 0 1-3 0m0-9V42a1.5 1.5 0 0 1 3 0v2.25a1.5 1.5 0 0 1-3 0" fill="#fff"/><path d="m58 56-.007.309c-.135 3.068-2.267 5.528-4.926 5.683L52.8 62H11.2l-.267-.008c-2.66-.155-4.791-2.615-4.926-5.683L6 56V37.773a2.08 2.08 0 1 1 4.16 0V56c0 .663.466 1.2 1.04 1.2h41.6c.574 0 1.04-.537 1.04-1.2V37.773a2.08 2.08 0 0 1 4.16 0zM53.067 2.008C55.815 2.168 58 4.79 58 8v4.612a2.08 2.08 0 0 1-4.16 0V8c0-.663-.466-1.2-1.04-1.2H11.2c-.538 0-.982.472-1.035 1.077L10.16 8v4.612a2.08 2.08 0 0 1-4.16 0V8c0-3.21 2.185-5.832 4.933-5.992L11.2 2h41.6z" fill="#fff"/></svg>