<svg width="64" height="64" viewBox="0 0 64 64" fill="none" xmlns="http://www.w3.org/2000/svg"><path fill-rule="evenodd" clip-rule="evenodd" d="M10 62h44a8 8 0 0 0 8-8V10a8 8 0 0 0-8-8H8q-.128 0-.255.005A5.5 5.5 0 0 0 2 7.5V54a8 8 0 0 0 8 8m7-48h37a4 4 0 0 1 4 4v36c0 .105-.124.155-.2.083L16.66 15.132C16.22 14.716 16.395 14 17 14m-3.375 3.766C13.385 17.54 13 17.67 13 18v36a4 4 0 0 0 4 4h37c.852 0 1.047-1.016.428-1.601z" fill="#fff"/><path d="M48.348 17.076a2 2 0 0 0-2.78-.027l-7.444 7.062a2 2 0 1 0 2.752 2.902l4.068-3.86v11.175a2 2 0 1 0 4 0v-11.05l3.763 3.708a2 2 0 1 0 2.807-2.849zM16.076 45.262a2 2 0 0 0-.027 2.78l7.062 7.445a2 2 0 0 0 2.902-2.753l-3.86-4.068h11.175a2 2 0 1 0 0-4h-11.05l3.708-3.762a2 2 0 0 0-2.849-2.808z" fill="#fff"/></svg>