<svg width="64" height="64" viewBox="0 0 64 64" fill="none" xmlns="http://www.w3.org/2000/svg"><path d="M46.585 39.59a2 2 0 0 1 2.665-.278l.16.13 10.58 9.522-10.58 9.522a2 2 0 1 1-2.677-2.972l5.055-4.55H24.036c-6.075 0-11-4.925-11-11V12.21l-4.55 5.056a2 2 0 0 1-2.972-2.676l9.522-10.58 9.522 10.58.13.159a2 2 0 0 1-2.958 2.661l-.145-.144-4.549-5.055v27.752a7 7 0 0 0 7 7h27.751l-5.054-4.549-.144-.145a2 2 0 0 1-.004-2.68" fill="#fff"/><path d="M19 22a2 2 0 1 1 0 4h-8a2 2 0 1 1 0-4zm23 31a2 2 0 1 1-4 0v-8a2 2 0 1 1 4 0zM18 35a2 2 0 1 1 0 4h-6a2 2 0 1 1 0-4zm11 17a2 2 0 1 1-4 0v-6a2 2 0 1 1 4 0z" fill="#fff"/></svg>