<svg width="23" height="23" viewBox="0 0 23 23" fill="none" xmlns="http://www.w3.org/2000/svg"><path fill-rule="evenodd" clip-rule="evenodd" d="M10.781 0a6.46 6.46 0 0 1 5.798 3.614C20.16 3.826 23 6.788 23 10.422c0 2.934-1.756 5.436-4.216 6.402v-.217c0-3.42 0-5.128-1.065-6.19-1.066-1.063-2.78-1.063-6.21-1.063-3.429 0-5.143 0-6.209 1.063s-1.065 2.77-1.065 6.19v.376C1.778 16.235 0 14.06 0 11.5c0-2.595 1.827-4.787 4.336-5.502A6.465 6.465 0 0 1 10.781 0" fill="#00B0F0"/><path fill-rule="evenodd" clip-rule="evenodd" d="M11.5 10.521c2.955 0 4.432 0 5.35.914s.918 2.384.918 5.326c0 2.94 0 4.412-.918 5.325S14.455 23 11.5 23s-4.432 0-5.35-.914c-.918-.913-.918-2.384-.918-5.325s0-4.412.918-5.326 2.395-.914 5.35-.914m-2.828 4.811 2.09-2.08a1.05 1.05 0 0 1 1.477 0l2.089 2.08a1.037 1.037 0 0 1 0 1.47 1.05 1.05 0 0 1-1.477 0l-.306-.304v3.036c0 .574-.468 1.04-1.045 1.04a1.04 1.04 0 0 1-1.045-1.04v-3.036l-.306.305a1.05 1.05 0 0 1-1.477 0 1.037 1.037 0 0 1 0-1.47" fill="#00B0F0"/></svg>