<svg width="160" height="40" viewBox="0 0 160 40" xmlns="http://www.w3.org/2000/svg">
  <defs>
    <linearGradient id="r7gradient" x1="0%" y1="0%" x2="100%" y2="0%">
      <stop offset="0%" style="stop-color:#4bd0a0;stop-opacity:1" />
      <stop offset="100%" style="stop-color:#5ce0b0;stop-opacity:1" />
    </linearGradient>
  </defs>
  
  <!-- R7 Consult Text -->
  <g transform="translate(10, 10)">
    <!-- R -->
    <path d="M 0 0 L 0 20 L 4 20 L 4 12 L 7 12 L 11 20 L 16 20 L 11 11.5 C 13.5 11 15 8.5 15 6 C 15 2.5 12.5 0 8 0 Z M 4 3.5 L 8 3.5 C 10 3.5 11 4.5 11 6.5 C 11 8.5 10 9.5 8 9.5 L 4 9.5 Z" 
          fill="#4bd0a0" />
    
    <!-- 7 -->
    <path d="M 20 0 L 20 3 L 28 3 L 20 20 L 25 20 L 33 3 L 33 0 Z" 
          fill="#4bd0a0" />
    
    <!-- Separator dot -->
    <circle cx="42" cy="10" r="2" fill="#4bd0a0" opacity="0.6" />
    
    <!-- C -->
    <path d="M 52 2 C 48 2 45 5 45 10 C 45 15 48 18 52 18 C 54.5 18 56.5 17 58 15 L 55.5 13 C 54.5 14 53.5 14.5 52 14.5 C 50 14.5 49 13 49 10 C 49 7 50 5.5 52 5.5 C 53.5 5.5 54.5 6 55.5 7 L 58 5 C 56.5 3 54.5 2 52 2 Z" 
          fill="#ffffff" />
    
    <!-- O -->
    <path d="M 62 2 C 58 2 55 5 55 10 C 55 15 58 18 62 18 C 66 18 69 15 69 10 C 69 5 66 2 62 2 Z M 62 5.5 C 63.5 5.5 65 7 65 10 C 65 13 63.5 14.5 62 14.5 C 60.5 14.5 59 13 59 10 C 59 7 60.5 5.5 62 5.5 Z" 
          fill="#ffffff" />
    
    <!-- N -->
    <path d="M 72 2 L 72 18 L 76 18 L 76 8 L 82 18 L 86 18 L 86 2 L 82 2 L 82 12 L 76 2 Z" 
          fill="#ffffff" />
    
    <!-- S -->
    <path d="M 90 2 C 87 2 85 3.5 85 6 C 85 8.5 86.5 9.5 89 10.5 C 91 11.5 91.5 12 91.5 13 C 91.5 14 91 14.5 89.5 14.5 C 88 14.5 87 14 86 13 L 84 16 C 85.5 17.5 87.5 18 89.5 18 C 93 18 95.5 16.5 95.5 13 C 95.5 10.5 94 9.5 91.5 8.5 C 89.5 7.5 89 7 89 6 C 89 5 89.5 4.5 90.5 4.5 C 91.5 4.5 92.5 5 93.5 5.5 L 95.5 2.5 C 94 1.5 92 1 90 2 Z" 
          fill="#ffffff" />
    
    <!-- U -->
    <path d="M 99 2 L 99 11 C 99 13 99 14.5 101 14.5 C 103 14.5 103 13 103 11 L 103 2 L 107 2 L 107 11 C 107 16 105 18 101 18 C 97 18 95 16 95 11 L 95 2 Z" 
          fill="#ffffff" />
    
    <!-- L -->
    <path d="M 111 2 L 111 18 L 119 18 L 119 14.5 L 115 14.5 L 115 2 Z" 
          fill="#ffffff" />
    
    <!-- T -->
    <path d="M 122 2 L 122 5.5 L 126 5.5 L 126 18 L 130 18 L 130 5.5 L 134 5.5 L 134 2 Z" 
          fill="#ffffff" />
  </g>
  
  <!-- Tech accent line -->
  <rect x="10" y="35" width="30" height="1" fill="url(#r7gradient)" opacity="0.6" />
  <rect x="45" y="35" width="15" height="1" fill="#ffffff" opacity="0.3" />
  
  <!-- Animated dot -->
  <circle cx="150" cy="20" r="2" fill="#4bd0a0">
    <animate attributeName="opacity" values="1;0.3;1" dur="2s" repeatCount="indefinite" />
  </circle>
</svg>