<svg viewBox="0 0 30 30" fill="none" xmlns="http://www.w3.org/2000/svg"><path d="M29.934 16.403H.068zm-1.557-8.189H1.623zm1.064 2.73H.561zM6.448 27.32h17.107v-.001H6.447zM15 0q-.442 0-.877.027h1.754A15 15 0 0 0 15 0m14.938 13.673H.063z" fill="#c42126"/><path d="M19.434 5.485h7.163a15 15 0 0 0-2.935-2.728h-5.379c.445.783.828 1.707 1.151 2.728" fill="#e7e7e7"/><path d="M18.283 2.757h5.379a14.9 14.9 0 0 0-7.784-2.73h-.462c1.36.172 1.986 1.179 2.867 2.73" fill="#dc3027"/><path d="M29.44 10.944a15 15 0 0 0-1.063-2.729h-8.24c.167.876.298 1.791.396 2.729z" fill="#e7e7e7"/><path d="M19.672 8.215h8.704a15 15 0 0 0-1.78-2.73h-7.604c.268.85.496 1.765.68 2.73" fill="#dc3027"/><path d="M20.848 16.402h9.084q.066-.693.067-1.402-.002-.67-.061-1.327H20.85c.03.908.029 1.822-.002 2.73" fill="#e7e7e7"/><path d="M29.939 13.673a15 15 0 0 0-.498-2.729h-9.29c.093.894.154 1.808.184 2.729z" fill="#dc3027"/><path d="M19.98 21.86h8.358a15 15 0 0 0 1.082-2.728h-9.036a32 32 0 0 1-.404 2.729" fill="#e7e7e7"/><path d="M29.42 19.132c.251-.88.426-1.792.513-2.73h-9.367a38 38 0 0 1-.191 2.73z" fill="#dc3027"/><path d="M23.554 27.319a15 15 0 0 0 2.979-2.729h-7.038c-.33 1.026-.72 1.949-1.173 2.729z" fill="#e7e7e7"/><path d="M19.23 24.59h7.303a15 15 0 0 0 1.805-2.73h-8.419a24 24 0 0 1-.689 2.73m-4.774 5.4-.09-.004zM15 30c3.18 0 6.127-.993 8.553-2.68h-5.428C17.16 28.98 16.525 30 15 30" fill="#dc3027"/><path d="M18.78 2.757H6.34a15 15 0 0 0-2.936 2.728H19.93c-.323-1.021-.706-1.945-1.15-2.728" fill="#f3f4f5"/><path d="M6.34 2.757h12.44c-.882-1.551-2.003-2.558-3.364-2.73h-1.293a14.9 14.9 0 0 0-7.783 2.73" fill="#e73625"/><path d="M.559 10.944h20.446a33 33 0 0 0-.396-2.729H1.622A15 15 0 0 0 .56 10.944" fill="#f3f4f5"/><path d="M3.403 5.485a15 15 0 0 0-1.78 2.73H20.61a24 24 0 0 0-.68-2.73z" fill="#e73625"/><path d="M0 15q.002.71.068 1.402h21.12c.032-.907.033-1.82.003-2.728H.061C.024 14.11 0 14.553 0 15" fill="#f3f4f5"/><path d="M.063 13.673h21.129a39 39 0 0 0-.186-2.729H.56c-.247.88-.416 1.792-.498 2.729" fill="#e73625"/><path d="M21 19.132H.581a15 15 0 0 0 1.081 2.729h18.932c.17-.875.305-1.79.404-2.73" fill="#f3f4f5"/><path d="M.582 19.132h20.417c.095-.894.159-1.808.19-2.73H.07c.086.938.261 1.85.513 2.73" fill="#e73625"/><path d="M6.445 27.319h12.288c.453-.78.843-1.703 1.172-2.729H3.467a15 15 0 0 0 2.978 2.729" fill="#f3f4f5"/><path d="M1.662 21.86a15 15 0 0 0 1.805 2.73h16.438c.272-.847.502-1.763.689-2.73zm12.704 8.126.09.003q.271.01.544.01c1.526 0 2.77-1.02 3.733-2.68H6.447a14.9 14.9 0 0 0 7.919 2.667" fill="#e73625"/><path d="M14.69.008C7.004.164.74 6.099.064 13.648h14.627z" fill="#283991"/><path d="m3 8.499.229.703h.74l-.599.436.229.704L3 9.906l-.598.436.228-.704-.599-.436h.74zm0 2.486.229.704h.74l-.599.435.229.704L3 12.393l-.598.435.228-.704-.599-.435h.74zm2.487-6.216.228.704h.74l-.598.435.228.704-.598-.435-.599.435.229-.704-.6-.435h.741zm0 2.486.228.704h.74l-.598.435.228.704-.598-.435-.599.435.229-.704-.6-.435h.741zm0 2.487.228.704h.74l-.598.434.228.705-.598-.436-.599.436.229-.705-.6-.434h.741zm-4.374 1.842-.229-.704.599-.435h-.74l-.017-.051q-.12.377-.222.763l.01-.008zm1.289-3.729L3 7.42l.599.435-.229-.704.599-.435h-.74L3 6.012l-.229.704H2.5q-.076.115-.15.232l.281.203zM5.486 3.69l.599.435-.23-.703.6-.436h-.428q-.544.408-1.05.862l-.09.277zm1.889-.808.599-.435.598.435-.228-.704.598-.435h-.74l-.031-.094q-.376.191-.742.403l.174.126zm.598.644.229.703h.74l-.599.436.229.704-.599-.436-.599.436.229-.704-.6-.436h.741zm0 2.486.229.704h.74l-.599.435.229.704-.599-.435-.599.435.229-.704-.6-.435h.741zm0 2.487.229.703h.74l-.599.436.229.704-.599-.436-.599.436.229-.704-.6-.436h.741zm0 2.486.229.704h.74l-.599.435.229.704-.599-.435-.599.435.229-.704-.6-.435h.741zm2.487-8.703.228.704h.74l-.598.436.228.703-.599-.434-.599.434.23-.703-.6-.436h.74zm0 2.487.228.704h.74l-.598.435.228.704-.599-.435-.599.435.23-.704-.6-.435h.74zm0 2.486.228.704h.74l-.598.435.228.704-.599-.435-.599.435.23-.704-.6-.435h.74zm0 2.487.228.704h.74l-.598.434.228.705-.599-.436-.599.436.23-.705-.6-.434h.74zm2.486-8.702.228.703h.74l-.598.435.228.704-.598-.435-.6.435.23-.704-.6-.435h.74zm0 2.486.228.703h.74l-.598.436.228.704-.598-.436-.6.436.23-.704-.6-.436h.74zm0 2.486.228.704h.74l-.598.435.228.704-.598-.435-.6.435.23-.704-.6-.435h.74zm0 2.487.228.703h.74l-.598.436.228.704-.598-.436-.6.436.23-.704-.6-.436h.74zm0 2.486.228.704h.74l-.598.435.228.704-.598-.435-.6.435.23-.704-.6-.435h.74z" fill="#efefef"/></svg>