<svg xmlns="http://www.w3.org/2000/svg" xml:space="preserve" overflow="hidden" viewBox="0 0 1065 949"><g fill-rule="evenodd"><path fill="#00B0F0" d="M285 445h210v399c0 57.99-47.01 105-105 105s-105-47.01-105-105zm285-92h210v491c0 57.99-47.01 105-105 105s-105-47.01-105-105zm284 208h211v282.5c0 58.27-47.23 105.5-105.5 105.5S854 901.77 854 843.5zM0 298h210v546c0 57.99-47.01 105-105 105S0 901.99 0 844z"/><path fill="#99DFF9" d="M105 0c57.99 0 105 47.01 105 105v193H0V105C0 47.01 47.01 0 105 0m285 1c57.99 0 105 47.01 105 105v339H285V106C285 48.01 332.01 1 390 1m285-1c57.99 0 105 47.01 105 105v248H570V105C570 47.01 617.01 0 675 0m284.5 0c58.27 0 105.5 47.234 105.5 105.5V561H854V105.5C854 47.234 901.23 0 959.5 0"/></g></svg>