<svg xmlns="http://www.w3.org/2000/svg" xml:space="preserve" overflow="hidden" viewBox="0 0 510 456"><g fill="#FFF" fill-rule="evenodd"><path fill-opacity=".8" d="M136 214h101v191.5c0 27.89-22.61 50.5-50.5 50.5S136 433.39 136 405.5zm137-46h100v238c0 27.614-22.39 50-50 50s-50-22.386-50-50zm136 45h101v192.5c0 27.891-22.61 50.5-50.5 50.5S409 433.39 409 405.5zM0 143h100v263c0 27.614-22.39 50-50 50S0 433.614 0 406z"/><path fill-opacity=".502" d="M50 1c27.61 0 50 22.386 50 50v92H0V51C0 23.386 22.39 1 50 1m136.5 0C214.39 1 237 23.609 237 51.5V214H136V51.5C136 23.609 158.61 1 186.5 1M323 0c27.61 0 50 22.386 50 50v118H273V50c0-27.614 22.39-50 50-50m136.5 0C487.39 0 510 22.61 510 50.5V213H409V50.5C409 22.61 431.61 0 459.5 0"/></g></svg>