<svg xmlns="http://www.w3.org/2000/svg" xml:space="preserve" overflow="hidden" viewBox="0 0 510 455"><g fill="#FFF" fill-rule="evenodd"><path fill-opacity=".8" d="M136 213h101v191.5c0 27.89-22.61 50.5-50.5 50.5S136 432.39 136 404.5zm137 74h100v118c0 27.614-22.39 50-50 50s-50-22.386-50-50zm136 71h101v48.5c0 26.786-21.71 48.5-48.5 48.5h-4c-26.79 0-48.5-21.714-48.5-48.5zM0 142h100v263c0 27.614-22.39 50-50 50S0 432.614 0 405z"/><path fill-opacity=".502" d="M50 0c27.61 0 50 22.386 50 50v92H0V50C0 22.386 22.39 0 50 0m136.5 97c27.89 0 50.5 22.61 50.5 50.5V213H136v-65.5c0-27.89 22.61-50.5 50.5-50.5M323 187c27.61 0 50 22.386 50 50v50H273v-50c0-27.614 22.39-50 50-50m136.5 70c27.89 0 50.5 22.61 50.5 50.5V358H409v-50.5c0-27.89 22.61-50.5 50.5-50.5"/></g></svg>