<svg xmlns="http://www.w3.org/2000/svg" xml:space="preserve" width="1065" height="949" overflow="hidden"><g fill-rule="evenodd"><path fill="#00B0F0" d="M285 445h210v399c0 57.99-47.01 105-105 105s-105-47.01-105-105zm285 154h210v245c0 57.99-47.01 105-105 105s-105-47.01-105-105zm284 149h211v100.5c0 55.5-45 100.5-100.5 100.5h-10C899 949 854 904 854 848.5zM0 298h210v546c0 57.99-47.01 105-105 105S0 901.99 0 844z"/><path fill="#99DFF9" d="M105 0c57.99 0 105 47.01 105 105v193H0V105C0 47.01 47.01 0 105 0m285 204c57.99 0 105 47.01 105 105v136H285V309c0-57.99 47.01-105 105-105m284.5 186h1c57.71 0 104.5 46.786 104.5 104.5V599H570V494.5c0-57.714 46.786-104.5 104.5-104.5m285 147c58.27 0 105.5 47.234 105.5 105.5V748H854V642.5c0-58.266 47.23-105.5 105.5-105.5"/></g></svg>