<svg xmlns="http://www.w3.org/2000/svg" xml:space="preserve" overflow="hidden" viewBox="0 0 623 550"><g fill="#FFF" fill-rule="evenodd"><path fill-opacity=".8" d="M0 102.5C0 45.891 45.89 0 102.5 0S205 45.891 205 102.5 159.11 205 102.5 205 0 159.109 0 102.5M183 423c0-40.317 32.68-73 73-73s73 32.683 73 73-32.68 73-73 73-73-32.683-73-73"/><path fill-opacity=".502" d="M350 143c0-50.81 41.19-92 92-92s92 41.19 92 92-41.19 92-92 92-92-41.19-92-92"/><path fill-opacity=".8" d="M514 495.5c0-30.1 24.4-54.5 54.5-54.5s54.5 24.4 54.5 54.5c0 30.099-24.4 54.5-54.5 54.5S514 525.599 514 495.5"/></g></svg>