<svg xmlns="http://www.w3.org/2000/svg" xml:space="preserve" width="970" height="857" overflow="hidden"><g fill-rule="evenodd"><path fill="#00B0F0" d="M0 159.5C0 71.411 71.411 0 159.5 0S319 71.411 319 159.5 247.589 319 159.5 319 0 247.589 0 159.5m284 500c0-63.237 51.039-114.5 114-114.5s114 51.263 114 114.5c0 63.24-51.04 114.5-114 114.5s-114-51.26-114-114.5"/><path fill="#99DFF9" stroke="#99DFF9" stroke-linecap="round" stroke-linejoin="round" stroke-miterlimit="10" stroke-width="24.063" d="M545 223c0-78.977 64.023-143 143-143 78.98 0 143 64.023 143 143s-64.02 143-143 143c-78.977 0-143-64.023-143-143"/><path fill="#00B0F0" d="M800 772c0-46.94 38.06-85 85-85s85 38.06 85 85-38.06 85-85 85-85-38.06-85-85"/></g></svg>