<svg xmlns="http://www.w3.org/2000/svg" xml:space="preserve" overflow="hidden" viewBox="0 0 1075 949"><path fill="none" stroke="#99DFF9" stroke-linecap="round" stroke-linejoin="round" stroke-miterlimit="10" stroke-width="10.313" d="M1069.81 476H5"/><path fill="#00B0F0" fill-rule="evenodd" d="M233 189h150v198c0 41.422-33.579 75-75 75s-75-33.579-75-75z"/><path fill="#99DFF9" fill-rule="evenodd" d="M298 59h20c35.898 0 65 29.101 65 65v65H233v-65c0-35.899 29.101-65 65-65"/><path fill="#00B0F0" fill-rule="evenodd" d="M994 256c41.42 0 75 33.579 75 75v56c0 41.421-33.58 75-75 75s-75-33.579-75-75v-56c0-41.421 33.58-75 75-75M5 334h150v62.5c0 34.518-27.982 62.5-62.5 62.5h-25C32.982 459 5 431.018 5 396.5z"/><path fill="#99DFF9" fill-rule="evenodd" d="M70.5 203h19c36.175 0 65.5 29.325 65.5 65.5V334H5v-65.5C5 232.325 34.325 203 70.5 203"/><path fill="#00B0F0" fill-rule="evenodd" d="M462 145h150v242c0 41.421-33.579 75-75 75s-75-33.579-75-75z"/><path fill="#99DFF9" fill-rule="evenodd" d="M534.5 0h5C579.541 0 612 32.459 612 72.5V145H462V72.5C462 32.459 494.459 0 534.5 0"/><path fill="#00B0F0" fill-rule="evenodd" d="M690 316h150v73c0 40.317-32.683 73-73 73h-4c-40.317 0-73-32.683-73-73z"/><path fill="#99DFF9" fill-rule="evenodd" d="M765 90c41.422 0 75 33.579 75 75v151H690V165c0-41.421 33.579-75 75-75"/><path fill="#00B0F0" fill-rule="evenodd" d="M840 677H690V562c0-41.422 33.579-75 75-75s75 33.579 75 75z"/><path fill="#99DFF9" fill-rule="evenodd" d="M769 767h-8c-39.212 0-71-31.788-71-71v-71h150v71c0 39.212-31.788 71-71 71"/><path fill="#00B0F0" fill-rule="evenodd" d="M80 694c-41.421 0-75-33.579-75-75v-57c0-41.421 33.579-75 75-75s75 33.579 75 75v57c0 41.421-33.579 75-75 75m989-79H919v-62c0-34.242 27.76-62 62-62h26c34.24 0 62 27.758 62 62z"/><path fill="#99DFF9" fill-rule="evenodd" d="M1003 747h-18c-36.45 0-66-29.549-66-66v-66h150v66c0 36.451-29.55 66-66 66"/><path fill="#00B0F0" fill-rule="evenodd" d="M612 805H462V562c0-41.422 33.579-75 75-75s75 33.579 75 75z"/><path fill="#99DFF9" fill-rule="evenodd" d="M540 949h-6c-39.765 0-72-32.24-72-72v-72h150v72c0 39.76-32.235 72-72 72"/><path fill="#00B0F0" fill-rule="evenodd" d="M383 668H233V562c0-41.421 33.579-75 75-75s75 33.579 75 75z"/><path fill="#99DFF9" fill-rule="evenodd" d="M308 949c-41.422 0-75-33.58-75-75V668h150v206c0 41.42-33.579 75-75 75"/></svg>