<svg xmlns="http://www.w3.org/2000/svg" xml:space="preserve" overflow="hidden" viewBox="0 0 1075 949"><path fill="none" stroke="#0166D5" stroke-linecap="round" stroke-linejoin="round" stroke-miterlimit="10" stroke-width="10.313" d="M1069.81 474H5"/><path fill="#00B0F0" d="M233 188h150v274H233z"/><path fill="#99DFF9" d="M233 58h150v130H233z"/><path fill="#00B0F0" d="M919 255h150v207H919zM5 334h150v124H5z"/><path fill="#99DFF9" d="M5 202h150v132H5z"/><path fill="#00B0F0" d="M462 145h150v317H462z"/><path fill="#99DFF9" d="M462 0h150v145H462z"/><path fill="#00B0F0" d="M690 316h150v146H690z"/><path fill="#99DFF9" d="M690 90h150v226H690z"/><path fill="#00B0F0" d="M690 487h150v189H690z"/><path fill="#99DFF9" d="M690 625h150v141H690z"/><path fill="#00B0F0" d="M5 487h150v206H5zm914 3h150v125H919z"/><path fill="#99DFF9" d="M919 615h150v132H919z"/><path fill="#00B0F0" d="M462 487h150v317H462z"/><path fill="#99DFF9" d="M462 804h150v145H462z"/><path fill="#00B0F0" d="M233 487h150v181H233z"/><path fill="#99DFF9" d="M233 668h150v281H233z"/></svg>