<svg xmlns="http://www.w3.org/2000/svg" xml:space="preserve" overflow="hidden" viewBox="0 0 699 613"><path fill="none" stroke="#FFF" stroke-linecap="round" stroke-linejoin="round" stroke-miterlimit="10" stroke-width="10.313" d="M693.77 307H4.995"/><path fill="#FFF" fill-opacity=".8" fill-rule="evenodd" d="M152 122h97v127.5c0 26.79-21.71 48.5-48.5 48.5S152 276.29 152 249.5z"/><path fill="#FFF" fill-opacity=".502" fill-rule="evenodd" d="M194.5 37h12c23.47 0 42.5 19.03 42.5 42.5V122h-97V79.5c0-23.47 19.03-42.5 42.5-42.5"/><path fill="#FFF" fill-opacity=".8" fill-rule="evenodd" d="M644.5 165c26.79 0 48.5 21.71 48.5 48.5v36c0 26.79-21.71 48.5-48.5 48.5S596 276.29 596 249.5v-36c0-26.79 21.71-48.5 48.5-48.5M5 216h97v40c0 22.09-17.91 40-40 40H45c-22.09 0-40-17.91-40-40z"/><path fill="#FFF" fill-opacity=".502" fill-rule="evenodd" d="M48 130h11c23.75 0 43 19.25 43 43v43H5v-43c0-23.75 19.25-43 43-43"/><path fill="#FFF" fill-opacity=".8" fill-rule="evenodd" d="M300 93h97v156.5c0 26.79-21.71 48.5-48.5 48.5S300 276.29 300 249.5z"/><path fill="#FFF" fill-opacity=".502" fill-rule="evenodd" d="M346.5 0h4C376.18 0 397 20.82 397 46.5V93h-97V46.5C300 20.82 320.82 0 346.5 0"/><path fill="#FFF" fill-opacity=".8" fill-rule="evenodd" d="M448 204h97v47c0 25.96-21.04 47-47 47h-3c-25.96 0-47-21.04-47-47z"/><path fill="#FFF" fill-opacity=".502" fill-rule="evenodd" d="M496.5 58c26.79 0 48.5 21.71 48.5 48.5V204h-97v-97.5c0-26.79 21.71-48.5 48.5-48.5"/><path fill="#FFF" fill-opacity=".8" fill-rule="evenodd" d="M545 404h-97v-44.5c0-24.58 19.92-44.5 44.5-44.5h8c24.58 0 44.5 19.92 44.5 44.5z"/><path fill="#FFF" fill-opacity=".502" fill-rule="evenodd" d="M499 496h-5c-25.41 0-46-20.59-46-46v-46h97v46c0 25.41-20.59 46-46 46"/><path fill="#FFF" fill-opacity=".8" fill-rule="evenodd" d="M53.5 448C26.71 448 5 426.29 5 399.5v-36C5 336.71 26.71 315 53.5 315s48.5 21.71 48.5 48.5v36c0 26.79-21.71 48.5-48.5 48.5M693 397h-97v-40c0-22.09 17.91-40 40-40h17c22.09 0 40 17.91 40 40z"/><path fill="#FFF" fill-opacity=".502" fill-rule="evenodd" d="M650 483h-11c-23.75 0-43-19.25-43-43v-43h97v43c0 23.75-19.25 43-43 43"/><path fill="#FFF" fill-opacity=".8" fill-rule="evenodd" d="M397 520h-97V363.5c0-26.79 21.71-48.5 48.5-48.5s48.5 21.71 48.5 48.5z"/><path fill="#FFF" fill-opacity=".502" fill-rule="evenodd" d="M350.5 613h-4c-25.68 0-46.5-20.82-46.5-46.5V520h97v46.5c0 25.68-20.82 46.5-46.5 46.5"/><path fill="#FFF" fill-opacity=".8" fill-rule="evenodd" d="M249 432h-97v-68.5c0-26.79 21.71-48.5 48.5-48.5s48.5 21.71 48.5 48.5z"/><path fill="#FFF" fill-opacity=".502" fill-rule="evenodd" d="M200.5 613c-26.79 0-48.5-21.71-48.5-48.5V432h97v132.5c0 26.79-21.71 48.5-48.5 48.5"/></svg>