<svg xmlns="http://www.w3.org/2000/svg" width="1064" height="949" fill="none"><g clip-path="url(#a)"><mask id="b" width="1064" height="949" x="0" y="0" maskUnits="userSpaceOnUse" style="mask-type:luminance"><path fill="#fff" d="M1064 0H0v949h1064z"/></mask><g fill-rule="evenodd" clip-rule="evenodd" mask="url(#b)"><path fill="#00B0F0" d="M284 445h210v399c0 57.99-47.01 105-105 105s-105-47.01-105-105zm285 154h210v245c0 57.99-47.01 105-105 105s-105-47.01-105-105zm285 149h210v100.5c0 55.5-45 100.5-100.5 100.5h-9C899 949 854 904 854 848.5zM0 298h210v546c0 57.99-47.01 105-105 105S0 901.99 0 844z"/><path fill="#99DFF9" d="M105 0c57.99 0 105 47.01 105 105v193H0V105C0 47.01 47.01 0 105 0m284 204c57.99 0 105 47.01 105 105v136H284V309c0-57.99 47.01-105 105-105m284.5 186h1c57.714 0 104.5 46.786 104.5 104.5V599H569V494.5c0-57.714 46.786-104.5 104.5-104.5M959 537c57.99 0 105 47.01 105 105v106H854V642c0-57.99 47.01-105 105-105"/><path fill="#FEB700" d="M648 205.5c0-21.263 17.237-38.5 38.5-38.5s38.5 17.237 38.5 38.5-17.237 38.5-38.5 38.5-38.5-17.237-38.5-38.5m-301 313c0-21.263 17.237-38.5 38.5-38.5s38.5 17.237 38.5 38.5-17.237 38.5-38.5 38.5-38.5-17.237-38.5-38.5m580 79c0-21.263 17.24-38.5 38.5-38.5s38.5 17.237 38.5 38.5-17.24 38.5-38.5 38.5-38.5-17.237-38.5-38.5"/><path fill="#FEB700" d="M467.571 428.715c-24.105 35.445-48.464 70.223-73.465 98.945l-9.075-7.899 9.075 7.899c-44.967 51.658-90.537 114.268-134.821 175.111q-5.27 7.242-10.514 14.441c-47.283 64.896-93.125 126.905-134.238 168.269l-17.066-16.962c39.554-39.796 84.269-100.164 131.856-165.477q5.302-7.277 10.645-14.62c44.121-60.623 90.296-124.069 135.988-176.56 23.956-27.521 47.599-61.213 71.718-96.678 4.376-6.436 8.769-12.931 13.18-19.452 19.751-29.203 39.858-58.932 60.422-86.161 25.141-33.291 51.523-63.62 79.698-85.352 28.244-21.786 59.162-35.591 93.025-34.147l-.513 12.02.513-12.02c34.426 1.468 68.404 22.392 99.348 51.78 31.236 29.665 60.991 69.485 87.031 112.026 51.843 84.696 90.678 183.071 96.585 238.435l-23.926 2.554c-5.362-50.251-42.153-145.06-93.182-228.427-25.397-41.49-53.891-79.421-83.078-107.14-29.479-27.997-58.097-44.091-83.803-45.188-26.27-1.12-51.737 9.44-77.304 29.16-25.637 19.775-50.492 48.093-75.192 80.8-20.148 26.678-39.819 55.761-59.555 84.938a9054 9054 0 0 1-13.352 19.705"/><path fill="#FEB700" d="M68 874.5c0-21.26 17.237-38.5 38.5-38.5s38.5 17.24 38.5 38.5-17.237 38.5-38.5 38.5S68 895.76 68 874.5"/><path fill="#fff" d="M949 598c0-8.837 7.16-16 16-16s16 7.163 16 16-7.16 16-16 16-16-7.163-16-16m-579-80c0-8.836 6.94-16 15.5-16s15.5 7.164 15.5 16-6.94 16-15.5 16-15.5-7.163-15.5-16M90 874c0-8.84 7.164-16 16-16s16 7.16 16 16-7.163 16-16 16-16-7.16-16-16m580-669c0-8.837 7.164-16 16-16s16 7.163 16 16-7.163 16-16 16-16-7.164-16-16"/></g></g><defs><clipPath id="a"><path fill="#fff" d="M0 0h1064v949H0z"/></clipPath></defs></svg>