<svg xmlns="http://www.w3.org/2000/svg" width="1064" height="949" fill="none"><path fill="#00B0F0" d="M494 444H284v505h210zm285 154H569v351h210zm285 149H854v202h210zM210 297H0v652h210z"/><path fill="#99DFF9" d="M210 0H0v297h210zm284 203H284v241h210zm285 186H569v209h210zm285 147H854v211h210z"/><path fill="#FEB700" fill-rule="evenodd" d="m681.052 173.23 8.638 9.827c117.976 134.217 180.47 226.644 255.43 337.509 9.686 14.325 19.58 28.958 29.829 44.029l-19.898 13.531a19975 19975 0 0 1-29.874-44.095c-73.039-108.017-133.544-197.498-244.93-325.23-14.846 15.503-32.512 34.087-52.169 54.764-66.015 69.441-154.476 162.493-233.909 241.784-16.583 22.428-33.601 45.704-50.833 69.273-78.792 107.766-162.071 221.67-228.799 288.856l-17.073-16.956c65.304-65.753 147.107-177.618 225.898-285.363 17.554-24.004 34.957-47.803 51.996-70.843l.536-.725.639-.637c79.349-79.181 167.69-172.107 233.853-241.705 23.922-25.163 44.945-47.277 61.596-64.589z" clip-rule="evenodd"/><path fill="#FEB700" fill-rule="evenodd" d="M648 194.5c0-21.26 17.237-38.5 38.5-38.5s38.5 17.24 38.5 38.5-17.237 38.5-38.5 38.5-38.5-17.24-38.5-38.5m-301 301c0-21.26 17.237-38.5 38.5-38.5s38.5 17.24 38.5 38.5-17.237 38.5-38.5 38.5-38.5-17.24-38.5-38.5m580 80c0-21.26 17.24-38.5 38.5-38.5s38.5 17.24 38.5 38.5-17.24 38.5-38.5 38.5-38.5-17.24-38.5-38.5m-859 276c0-21.26 17.237-38.5 38.5-38.5s38.5 17.24 38.5 38.5-17.237 38.5-38.5 38.5S68 872.76 68 851.5" clip-rule="evenodd"/><path fill="#fff" fill-rule="evenodd" d="M949 576c0-8.84 7.16-16 16-16s16 7.16 16 16-7.16 16-16 16-16-7.16-16-16m-579-80c0-8.84 6.94-16 15.5-16s15.5 7.16 15.5 16-6.94 16-15.5 16-15.5-7.16-15.5-16M90 852c0-8.84 7.164-16 16-16s16 7.16 16 16-7.163 16-16 16-16-7.16-16-16m580-657.5c0-8.56 7.164-15.5 16-15.5s16 6.94 16 15.5-7.163 15.5-16 15.5-16-6.94-16-15.5" clip-rule="evenodd"/></svg>