<svg xmlns="http://www.w3.org/2000/svg" fill="none" viewBox="0 0 261 232"><g clip-path="url(#a)"><mask id="b" width="261" height="232" x="0" y="0" maskUnits="userSpaceOnUse" style="mask-type:luminance"><path fill="#fff" d="M261 0H0v232h261z"/></mask><g fill="#fff" fill-rule="evenodd" clip-rule="evenodd" mask="url(#b)"><path fill-opacity=".8" d="M69.793 108.789h51.622v97.456c0 14.224-11.555 25.755-25.811 25.755s-25.811-11.531-25.811-25.755zm69.792 37.499h51.622v59.957c0 14.224-11.555 25.755-25.811 25.755s-25.811-11.531-25.811-25.755zm69.793 36.675H261v24.518C261 221.023 249.998 232 236.428 232h-2.478c-13.57 0-24.572-10.977-24.572-24.519zM0 72.938h51.622v133.307C51.622 220.469 40.067 232 25.81 232S0 220.469 0 206.245z"/><path fill-opacity=".502" d="M25.81 0c14.257 0 25.812 11.53 25.812 25.755v47.183H0V25.755C0 11.53 11.555 0 25.81 0m69.794 49.862c14.256 0 25.811 11.53 25.811 25.754v33.173H69.793V75.616c0-14.224 11.555-25.754 25.81-25.754M165.19 95.19h.413c14.14 0 25.604 11.439 25.604 25.549v25.549h-51.622v-25.549c0-14.11 11.465-25.549 25.605-25.549m69.999 35.851c14.256 0 25.811 11.531 25.811 25.755v26.167h-51.622v-26.167c0-14.224 11.555-25.755 25.811-25.755"/><path d="M158.995 50.068c0-5.121 4.254-9.272 9.499-9.272s9.498 4.151 9.498 9.272c0 5.12-4.253 9.271-9.498 9.271s-9.499-4.151-9.499-9.271m-73.509 76.44c0-5.235 4.158-9.478 9.292-9.478s9.292 4.243 9.292 9.478-4.159 9.478-9.292 9.478c-5.134 0-9.292-4.243-9.292-9.478m142.063 19.574c0-5.121 4.159-9.272 9.292-9.272s9.292 4.151 9.292 9.272-4.159 9.271-9.292 9.271-9.292-4.15-9.292-9.271"/><path d="M116.753 106.081c-5.909 8.675-11.942 17.28-18.16 24.412-10.964 12.575-22.085 27.831-32.956 42.744q-1.287 1.766-2.57 3.523c-11.567 15.852-22.901 31.17-33.111 41.427l-7.05-6.988c9.566-9.611 20.436-24.252 32.129-40.276l2.623-3.597c10.803-14.822 22.174-30.422 33.437-43.341v-.001c5.787-6.636 11.525-14.793 17.44-23.477q1.6-2.352 3.22-4.745c4.843-7.15 9.809-14.48 14.886-21.19 6.201-8.2 12.798-15.792 19.919-21.276 7.149-5.506 15.187-9.158 24.128-8.777 9.173.39 17.954 5.918 25.664 13.228 7.83 7.425 15.231 17.331 21.669 27.833 12.78 20.846 22.473 45.227 23.967 59.207l-9.881 1.051c-1.269-11.874-10.119-34.786-22.562-55.083-6.173-10.07-13.054-19.197-20.039-25.82-7.105-6.738-13.672-10.272-19.242-10.51l.212-4.953-.212 4.953c-5.803-.247-11.589 2.066-17.633 6.72-6.073 4.678-12.039 11.442-18.059 19.4-4.904 6.484-9.691 13.548-14.527 20.687q-1.64 2.423-3.292 4.849"/><path d="M16.932 213.663c0-5.121 4.254-9.272 9.498-9.272 5.245 0 9.499 4.151 9.499 9.272 0 5.12-4.254 9.271-9.499 9.271-5.244 0-9.498-4.151-9.498-9.271m215.986-67.581a3.92 3.92 0 0 1 3.923-3.915 3.92 3.92 0 0 1 3.923 3.915 3.917 3.917 0 0 1-3.923 3.914 3.917 3.917 0 0 1-3.923-3.914M90.855 126.714a3.92 3.92 0 0 1 3.923-3.915 3.92 3.92 0 0 1 3.923 3.915 3.92 3.92 0 0 1-3.923 3.915 3.92 3.92 0 0 1-3.924-3.915"/><path d="M22.3 213.663a3.92 3.92 0 0 1 3.924-3.915 3.92 3.92 0 0 1 3.923 3.915 3.92 3.92 0 0 1-3.923 3.914 3.92 3.92 0 0 1-3.924-3.914M164.777 50.068c0-2.163 1.664-3.915 3.717-3.915s3.716 1.752 3.716 3.915c0 2.162-1.664 3.914-3.716 3.914s-3.717-1.752-3.717-3.914"/></g></g><defs><clipPath id="a"><path fill="#fff" d="M0 0h261v232H0z"/></clipPath></defs></svg>