<svg width="242" height="217" viewBox="0 0 242 217" fill="none" xmlns="http://www.w3.org/2000/svg"><path fill-rule="evenodd" clip-rule="evenodd" d="M170.288 46.598c13.202 0 23.904 10.738 23.904 23.984v122.205c0 13.246-10.702 23.984-23.904 23.984s-23.904-10.738-23.904-23.984V70.582c0-13.246 10.702-23.984 23.904-23.984M23.904 0c13.202 0 23.904 10.738 23.904 23.984v168.803c0 13.247-10.702 23.985-23.904 23.985S0 206.034 0 192.787V23.984C0 10.738 10.702 0 23.904 0" fill="#00B0F0"/><path fill-rule="evenodd" clip-rule="evenodd" d="M71.94 62.13c13.202 0 23.904 10.739 23.904 23.985v106.673c0 13.246-10.702 23.984-23.904 23.984s-23.904-10.738-23.904-23.984V86.115c0-13.246 10.702-23.984 23.904-23.984m146.156 47.283c13.202 0 23.904 10.738 23.904 23.984v59.39c0 13.246-10.702 23.984-23.904 23.984s-23.904-10.738-23.904-23.984v-59.39c0-13.246 10.703-23.984 23.904-23.984" fill="#99DFF9"/><path d="M71.5 18.213c4.05 0 8.305 1.696 12.518 4.28 4.257 2.609 8.753 6.3 13.352 10.687 9.201 8.776 19.114 20.636 28.718 33.065 9.616 12.445 19 25.563 27.122 36.882 8.169 11.384 14.98 20.83 19.559 26.123 9.393 10.858 21.278 24.869 30.809 36.16a8267 8267 0 0 1 15.449 18.359l.945 1.127.245.292.061.074.017.018.004.005.001.001-2.3 1.927-2.3 1.926-.001-.001-.004-.005-.078-.093-.244-.291-.943-1.125c-.822-.98-2.017-2.405-3.51-4.182a8405 8405 0 0 0-11.927-14.161c-9.528-11.287-21.393-25.276-30.762-36.105-4.802-5.551-11.806-15.277-19.896-26.551-8.137-11.34-17.456-24.367-26.994-36.71-9.551-12.36-19.245-23.934-28.112-32.394-4.436-4.23-8.59-7.61-12.348-9.914-3.803-2.33-6.93-3.394-9.381-3.394-1.924 0-4.358 1.254-7.267 4.662-2.846 3.335-5.723 8.249-8.557 14.378-5.656 12.23-10.853 28.657-15.278 45.233-4.416 16.545-8.027 33.106-10.536 45.539a859 859 0 0 0-2.893 15.013 603 603 0 0 0-.948 5.303l-.047.28-.012.07-.003.017-.001.004-2.958-.499c-2.958-.501-2.958-.502-2.958-.503l.001-.005.004-.018.013-.076q.015-.098.05-.289a609 609 0 0 1 .957-5.364 866 866 0 0 1 2.914-15.119c2.523-12.504 6.162-29.194 10.62-45.9 4.451-16.673 9.754-33.497 15.63-46.204 2.93-6.34 6.077-11.816 9.438-15.754 3.299-3.866 7.255-6.768 11.831-6.768" fill="#FEB700"/><path d="M179.515 131.139a8.926 8.926 0 1 1-8.926-8.926 8.926 8.926 0 0 1 8.926 8.926" fill="#FEB700"/><path d="M174.556 131.14a3.968 3.968 0 1 1-7.936 0 3.968 3.968 0 0 1 7.936 0" fill="#fff"/><path d="M80.33 21.14a8.927 8.927 0 1 1-17.853 0 8.927 8.927 0 0 1 17.853 0" fill="#FEB700"/><path d="M75.37 21.14a3.967 3.967 0 1 1-7.935 0 3.967 3.967 0 0 1 7.935 0" fill="#fff"/><path d="M31.853 154.139a8.927 8.927 0 1 1-17.854 0 8.927 8.927 0 0 1 17.854 0" fill="#FEB700"/><path d="M26.896 154.139a3.968 3.968 0 1 1-7.936 0 3.968 3.968 0 0 1 7.936 0" fill="#fff"/><path d="M227.123 187.139a8.927 8.927 0 1 1-17.855 0 8.927 8.927 0 0 1 17.855 0" fill="#FEB700"/><path d="M222.165 187.139a3.968 3.968 0 1 1-7.935 0 3.968 3.968 0 0 1 7.935 0" fill="#fff"/></svg>