<svg width="243" height="218" viewBox="0 0 243 218" fill="none" xmlns="http://www.w3.org/2000/svg"><path d="M146.988 46.692h48.006v170.52h-48.006zM0 0h48.006v217.212H0z" fill="#00B0F0"/><path d="M48.006 62.257H96.24v154.955H48.006zm146.988 47.379H243v107.576h-48.006z" fill="#99DFF9"/><path d="m173.729 129.206.031.032.028.034 47.5 56-4.576 3.881-47.482-55.977L73.608 26.929 26.818 155.24l-5.636-2.054 50.21-137.69z" fill="#FEB700"/><path d="M180.515 131.139a8.926 8.926 0 1 1-8.926-8.926 8.926 8.926 0 0 1 8.926 8.926" fill="#FEB700"/><path d="M175.556 131.14a3.968 3.968 0 1 1-7.936 0 3.968 3.968 0 0 1 7.936 0" fill="#fff"/><path d="M81.33 21.14a8.927 8.927 0 1 1-17.853 0 8.927 8.927 0 0 1 17.853 0" fill="#FEB700"/><path d="M76.37 21.14a3.967 3.967 0 1 1-7.935 0 3.967 3.967 0 0 1 7.935 0" fill="#fff"/><path d="M32.853 154.139a8.927 8.927 0 1 1-17.854 0 8.927 8.927 0 0 1 17.854 0" fill="#FEB700"/><path d="M27.896 154.139a3.968 3.968 0 1 1-7.936 0 3.968 3.968 0 0 1 7.936 0" fill="#fff"/><path d="M228.123 187.139a8.927 8.927 0 1 1-17.855 0 8.927 8.927 0 0 1 17.855 0" fill="#FEB700"/><path d="M223.165 187.139a3.968 3.968 0 1 1-7.935 0 3.968 3.968 0 0 1 7.935 0" fill="#fff"/></svg>