<svg width="92" height="82" viewBox="0 0 92 82" fill="none" xmlns="http://www.w3.org/2000/svg"><g clip-path="url(#a)" fill-rule="evenodd" clip-rule="evenodd"><path d="M64.348 17.608c4.989 0 9.033 4.058 9.033 9.064V72.85c0 5.005-4.044 9.063-9.033 9.063s-9.033-4.058-9.033-9.064V26.673c0-5.006 4.045-9.064 9.033-9.064M9.033 0c4.989 0 9.033 4.058 9.033 9.063v63.788c0 5.005-4.044 9.063-9.033 9.063S0 77.856 0 72.85V9.063C0 4.058 4.044 0 9.033 0" fill="#F9F9F9"/><path d="M27.184 23.478c4.989 0 9.033 4.057 9.033 9.063v40.31c0 5.005-4.044 9.062-9.033 9.062s-9.033-4.057-9.033-9.063V32.54c0-5.005 4.044-9.062 9.033-9.062m55.23 17.868c4.988 0 9.033 4.057 9.033 9.063V72.85c0 5.005-4.045 9.063-9.033 9.063-4.989 0-9.033-4.058-9.033-9.063V50.409c0-5.006 4.044-9.063 9.033-9.063" fill="#F0F0F0"/></g><path d="M27.018 6.882c1.53 0 3.138.64 4.73 1.617 1.609.986 3.308 2.38 5.046 4.038 3.477 3.317 7.223 7.799 10.852 12.495 3.634 4.703 7.18 9.66 10.249 13.937 3.087 4.302 5.66 7.872 7.39 9.872 3.55 4.103 8.041 9.397 11.643 13.664a3040 3040 0 0 1 6.195 7.363l.092.11.024.028.006.007.001.002-1.737 1.456-.002-.002-.03-.035-.092-.11-.357-.425-1.326-1.58c-1.128-1.343-2.707-3.22-4.507-5.351-3.6-4.266-8.084-9.552-11.624-13.644-1.815-2.098-4.461-5.773-7.518-10.033-3.075-4.285-6.596-9.208-10.2-13.872-3.61-4.67-7.273-9.044-10.624-12.24-1.676-1.6-3.245-2.876-4.666-3.747-1.437-.881-2.619-1.283-3.545-1.283-.727 0-1.647.474-2.746 1.762-1.075 1.26-2.162 3.117-3.233 5.433-2.138 4.622-4.102 10.829-5.774 17.093-1.668 6.252-3.033 12.51-3.98 17.208a325 325 0 0 0-1.38 7.26l-.072.417-.018.106-.005.026v.007l-.001.001-1.118-.189-1.118-.19v-.001l.002-.007.005-.029.019-.109q.024-.145.074-.424c.065-.37.161-.913.287-1.603.253-1.38.625-3.35 1.102-5.713.953-4.725 2.328-11.032 4.013-17.345 1.682-6.3 3.686-12.658 5.906-17.46 1.108-2.395 2.296-4.465 3.566-5.953 1.247-1.46 2.742-2.557 4.471-2.557" fill="#fff"/><path d="M67.838 49.555a3.373 3.373 0 1 1-6.746 0 3.373 3.373 0 0 1 6.746 0" fill="#fff"/><path d="M67.46 49.555a2.996 2.996 0 1 0-2.995 2.995v.378l-.174-.004a3.374 3.374 0 0 1-3.195-3.196l-.004-.173a3.373 3.373 0 0 1 3.373-3.373l.173.004a3.373 3.373 0 0 1 3.2 3.369l-.004.173a3.374 3.374 0 0 1-3.369 3.2v-.378a2.995 2.995 0 0 0 2.995-2.995" fill="#fff"/><path d="M65.963 49.556a1.5 1.5 0 1 1-2.998 0 1.5 1.5 0 0 1 2.998 0" fill="#fff"/><path d="M65.585 49.556a1.121 1.121 0 1 0-1.12 1.121v.378l-.078-.002a1.5 1.5 0 0 1-1.42-1.42l-.002-.077a1.5 1.5 0 0 1 1.5-1.5l.076.003a1.5 1.5 0 0 1 1.422 1.497l-.002.077a1.5 1.5 0 0 1-1.497 1.422v-.378a1.12 1.12 0 0 0 1.121-1.121M30.358 7.988a3.373 3.373 0 1 1-6.747 0 3.373 3.373 0 0 1 6.747 0" fill="#fff"/><path d="M29.98 7.988a2.995 2.995 0 1 0-2.995 2.996v.378l-.174-.005a3.374 3.374 0 0 1-3.195-3.195l-.005-.174a3.373 3.373 0 0 1 3.374-3.373l.173.005a3.373 3.373 0 0 1 3.2 3.368l-.005.174a3.373 3.373 0 0 1-3.368 3.2v-.378a2.995 2.995 0 0 0 2.995-2.996" fill="#fff"/><path d="M28.484 7.987a1.5 1.5 0 1 1-2.999 0 1.5 1.5 0 0 1 2.999 0" fill="#fff"/><path d="M28.106 7.988a1.121 1.121 0 1 0-1.121 1.12v.379l-.077-.002a1.5 1.5 0 0 1-1.42-1.42l-.003-.077a1.5 1.5 0 0 1 1.5-1.5l.077.002a1.5 1.5 0 0 1 1.422 1.498l-.002.077a1.5 1.5 0 0 1-1.497 1.422v-.378a1.12 1.12 0 0 0 1.12-1.121M12.04 58.246a3.373 3.373 0 1 1-6.747 0 3.373 3.373 0 0 1 6.746 0" fill="#fff"/><path d="M11.662 58.246a2.996 2.996 0 1 0-2.996 2.996v.378l-.174-.005a3.374 3.374 0 0 1-3.195-3.195l-.004-.174a3.373 3.373 0 0 1 3.373-3.373l.174.005a3.373 3.373 0 0 1 3.2 3.368l-.005.174a3.373 3.373 0 0 1-3.369 3.2v-.378a2.996 2.996 0 0 0 2.996-2.996" fill="#fff"/><path d="M10.166 58.246a1.5 1.5 0 1 1-2.998 0 1.5 1.5 0 0 1 2.998 0" fill="#fff"/><path d="M9.788 58.246a1.121 1.121 0 1 0-1.12 1.121v.378l-.078-.001a1.5 1.5 0 0 1-1.42-1.42l-.002-.078a1.5 1.5 0 0 1 1.5-1.499l.076.002a1.5 1.5 0 0 1 1.422 1.497l-.002.078a1.5 1.5 0 0 1-1.497 1.421v-.377a1.12 1.12 0 0 0 1.121-1.122m76.038 12.471a3.373 3.373 0 1 1-6.746 0 3.373 3.373 0 0 1 6.746 0" fill="#fff"/><path d="M85.449 70.717a2.996 2.996 0 1 0-2.996 2.995v.378l-.174-.004a3.374 3.374 0 0 1-3.194-3.196l-.005-.173a3.373 3.373 0 0 1 3.373-3.373l.174.004a3.373 3.373 0 0 1 3.2 3.369l-.005.173a3.373 3.373 0 0 1-3.369 3.2v-.378a2.996 2.996 0 0 0 2.996-2.995" fill="#fff"/><path d="M83.953 70.716a1.5 1.5 0 1 1-2.998 0 1.5 1.5 0 0 1 2.998 0" fill="#fff"/><path d="M83.576 70.716a1.121 1.121 0 1 0-1.122 1.121v.378l-.077-.002a1.5 1.5 0 0 1-1.42-1.42l-.002-.077a1.5 1.5 0 0 1 1.5-1.5l.077.003a1.5 1.5 0 0 1 1.421 1.497l-.001.077a1.5 1.5 0 0 1-1.498 1.422v-.378c.62 0 1.122-.502 1.122-1.12" fill="#fff"/><defs><clipPath id="a"><path fill="#fff" d="M0 0h91.447v82H0z"/></clipPath></defs></svg>