<svg xmlns="http://www.w3.org/2000/svg" xml:space="preserve" overflow="hidden" viewBox="0 0 621 621"><g fill-rule="evenodd"><path fill="#EBF2FB" d="M310.44 0v150.132l-32.32 3.258C205.06 168.344 150.1 233.002 150.1 310.5c0 88.568 71.78 160.367 160.34 160.367 44.27 0 84.36-17.949 113.37-46.97l3.94-4.776L538 521.199l-4.45 4.894-8.22 8.168-12.69 11.535-8.48 7.099-14.25 10.662-8.56 6.031-16.4 9.961-7.85 4.609-24.22 11.668-10.7 4.104-15.35 5.618-12.51 3.662-14.95 3.843-12.38 2.556-17.42 2.659-10.4 1.281L310.44 621l-28.93-1.461-9.55-1.17-18.55-2.832-11.6-2.405-15.75-4.049-12.29-3.637-14.34-5.247-12.32-4.796-14.71-7.09-10.22-5.011-6.23-3.736-17.58-10.68-7.81-5.631-13.99-10.466-32.44-30.2-6.21-6.835-26.97-35.048-9.35-15.396-4.61-7.793-.72-1.484-10.7-22.214-4.7-12.077-5.15-14.066-3.78-12.658-3.9-15.19-2.52-11.876-2.9-18.998-1.13-8.868L0 310.632l.04-1.114 1.4-27.691 1.3-10.574 2.64-17.323 2.78-13.238 3.64-14.149 4.12-13.756 5.02-13.714 4.92-12.484 8.09-16.791 4.02-8.138 14.04-23.106 27.67-35.241 5.86-6.447 32.23-29.557 12.78-9.554 8.28-5.919 20.06-12.191 3.17-1.899 7.1-3.5 17.61-8.484 11.37-4.487 14.95-5.475 12.13-3.666 15.73-4.045 11.87-2.536 18.24-2.785 10.15-1.292z"/><path fill="#00B0F0" fill-opacity=".788" d="m310 0-29 2 2.81-.488A227 227 0 0 1 310 0"/><path fill="#FFF" fill-opacity=".502" d="M310 0c171.76 0 311 139.229 311 310.977 0 75.14-26.65 144.055-71.02 197.81L537.97 522 427.53 419.765l15.66-18.987c17.32-25.635 27.44-56.537 27.44-89.801 0-88.705-71.92-160.614-160.63-160.614z"/><path fill="#00B0F0" fill-opacity=".788" d="m281 2-10 1 7.52-.901zm-10 1-18 3 5.28-1.232zm-18 3-12 2 7-1.404zm-12 2-16 4 7.86-2.309zm-16 4-12 4 4.98-2.009zm-12 4-15 5 10.33-3.716zm-15 5-11 5 2.73-1.517zm-11 5-18 8 15.96-7.258zm-18 8-6.91 3.89L159 40l3.48-2.411zm-10 6-20 12 1.56-1.101zm-20 12-9 6 6.87-4.791zm-9 6-12 10 1.97-2.015zm-12 10L85 97l5.51-5.81a315 315 0 0 1 22.57-19.663zM85 97l-5 7 2.57-4.17zm-5 7-28 35 1.02-1.646a309 309 0 0 1 18.08-23.74zm-28 35-14 23 .18-.367a312 312 0 0 1 13.18-21.822zm-14 23-4 8 3.49-7.177zm-4 8-8 17 .84-2.191zm-8 17-5 12 3.51-9.068zm-5 12-5 14 1.22-4.186zm-5 14-4 14 2.09-8.525zm-4 14-4 14 1.54-6.624zm-4 14-3 13 .99-5.899zm-3 13-2 17 1.06-11.183zm-2 17-2 11 .24-3.198zm-2 11-1 28 .66-24.041zm0 28-.87 1-.13-.118zm-.98 1L1 340l-.25-2.934c-.48-8.345-.73-16.744-.75-25.179zM1 340l2 9-1.81-6.807zm2 9 2 19-.82-5.61zm2 19 3 12-2.07-6.822zm3 12 4 15-2.42-7.797zm4 15 4 13-1.87-4.974zm4 13 5 14-3.94-10.368zm5 14 4 12-1.01-2.443zm4 12 11 22-10.59-20.998zm11 22 .81 1.6L42 466l-4.66-7.338zm6 10 9 15-1.07-1.403zm9 15 27 35-7.05-7.737a311 311 0 0 1-17.88-23.87zm27 35 6 7-3.24-3.199zm459.79 6 .21.189-4 3.811zM84 523l33 30-3.66-2.674a314 314 0 0 1-22.43-19.908zm450 3-3.94 4.367L525 535zm-9 9-5.51 5.516L513 546zm-12 11-5.03 4.241L504 553zm-396 7 14 11-12.2-9.239zm387 0-4.57 4.022L490 564zm-373 11 7 5-1.35-.812zm359 0-6.2 4.392L481 570zm-352 5 18 11-16.82-10.148zm343 1-2.86 2.073L465 580zm-16 10-6.66 3.45-1.34.55zm-309 0 6.06 3.843L172 589l-9.67-4.927zm301 4-.75.458a302 302 0 0 1-22.72 11.332l-.53.21zm-285 5 15 7-1.24-.468zm15 7 12 5-9.58-3.753zm246 0-1.65.753L422 600zm-11 4-12.13 5.083L407 606zm-223 1 15 5-3.74-1.006zm15 5 12 3-7.75-1.685zm193 0-4.24 1.63L394 610zm-181 3 16 4-6.98-1.406zm168 1-8.83 2.009L379 613zm-15 3-6.18 1.923L367 616zm-137 0 11 3-5.25-1.054zm11 3 19 3-12.25-1.552zm114 0-6.02 1.437L350 619zm-17 3-7.82.881L339 620zm-78 0 10 1-2.95-.122zm10 1 28.59.992 28.41-.986-3.35.283c-16.57.937-33.28.951-49.95.022z"/></g></svg>