<svg xmlns="http://www.w3.org/2000/svg" xml:space="preserve" width="949" height="950" overflow="hidden"><g fill-rule="evenodd"><path fill="#00B0F0" fill-opacity=".788" d="M474.885 0v229.429l-49.431 4.979C313.686 257.26 229.61 356.069 229.61 474.5c0 135.349 109.814 245.07 245.275 245.07 67.731 0 129.05-27.43 173.435-71.779l6.03-7.298L823 796.49l-6.8 7.47-12.59 12.49-19.41 17.62-12.96 10.85-21.81 16.3-13.09 9.21-25.08 15.23-12.02 7.04-37.05 17.83-16.37 6.27-23.48 8.59-19.137 5.59-22.865 5.88-18.934 3.9-26.653 4.07-15.902 1.95-43.963 2.22-44.247-2.23-14.61-1.79-28.38-4.33-17.749-3.67-24.085-6.19-18.809-5.56-21.927-8.02-18.842-7.33-22.511-10.83-15.64-7.66-9.528-5.71-26.888-16.32-11.949-8.6-21.406-16-49.612-46.15-9.5-10.44-41.265-53.57-14.306-23.523-7.041-11.908-1.103-2.268-16.367-33.948-7.196-18.456-7.874-21.494-5.784-19.345-5.974-23.212-3.851-18.15-4.435-29.032-1.732-13.551L0 474.701l.066-1.702 2.138-42.317 1.988-16.158 4.044-26.473 4.246-20.23 5.564-21.622 6.306-21.022 7.677-20.958 7.528-19.078 12.371-25.659 6.157-12.436 21.47-35.311 42.334-53.854 8.963-9.853 49.308-45.169 19.54-14.6 12.67-9.045 30.691-18.63 4.853-2.902 10.862-5.348 26.937-12.965 17.383-6.857 22.879-8.367 18.548-5.602 24.062-6.181 18.164-3.876 27.906-4.256 15.524-1.975z"/><path fill="#00B0F0" fill-opacity=".788" d="m475 0-45 2 4.358-.488A546 546 0 0 1 475 0"/><path fill="#99DFF9" d="M475.001 0C736.78 0 949 212.578 949 474.806c0 114.725-40.62 219.946-108.24 302.024L822.46 797 654.12 640.906 678 611.915c26.4-39.138 41.81-86.321 41.81-137.11 0-135.436-109.6-245.228-244.81-245.228z"/><path fill="#00B0F0" fill-opacity=".788" d="m430 2-16 2 12.033-1.803zm-16 2-28 4 8.219-1.643zm-28 4-18 4 10.497-2.809zm-18 4-24 6 11.784-3.464zm-24 6-18 6 7.464-3.013zm-18 6-23 8 15.847-5.945zm-23 8-18 7 4.475-2.123zm-18 7-27 13 23.946-11.795zm-27 13-10.368 5.186L243 60l5.213-3.214zm-15 8-31 19 2.417-1.743zm-31 19-13 9 9.919-7.187zm-13 9-19 15 3.123-3.023zm-19 15-50 45 8.348-9.016a481 481 0 0 1 34.197-30.511zm-50 45-9 10 4.633-5.957zm-9 10-42 54 1.527-2.539a477 477 0 0 1 27.123-36.628zm-42 54-21 35 .273-.559a470 470 0 0 1 19.77-33.207zm-21 35-6 12 5.242-10.766zm-6 12-13 26 1.371-3.351zm-13 26-7 19 4.91-14.357zm-7 19-8 21 1.958-6.278zm-8 21-6 21 3.134-12.787zm-6 21-6 22 2.315-10.41zm-6 22-4 20 1.321-9.075zm-4 20-4 27 2.12-17.761zm-4 27-2 16 .239-4.651zm-2 16-2 42 1.312-36.061zm-1 42-.867 2-.133-.237zm-.954 2L2 520l-.5-4.554A549 549 0 0 1 0 476.375zM2 520l2 13-1.807-9.832zm2 13 4 29-1.641-8.562zm4 29 4 19-2.758-10.801zm4 19 6 23-3.624-11.955zm6 23 6 19-2.812-7.269zm6 19 8 22-6.306-16.292zm8 22 7 18-1.762-3.664zm7 18 16 34-15.411-32.452zm16 34 1.084 2.24L63 711l-6.213-10.273zm8 14 15 24-1.778-2.24zm15 24 41 54-10.7-11.94a480 480 0 0 1-27.163-36.82zm41 54 9 10-4.861-4.57zm703.63 8 .37.33-7 6.67zM128 799l50 46-5.55-4.1a479 479 0 0 1-33.988-30.53zm688 5-5.69 6.31L803 817zm-13 13-8.72 8.52L784 834zm-19 17-7.26 6.66L771 845zm-606 11 21 16-18.3-13.44zm593 0-7.18 6.22L749 862zm-572 16 12 9-2.313-1.46zm550 1-8.96 6.59L736 871zm-538 8 27 16-25.237-14.76zm525 1-4.47 3.11L711 886zm-25 15-9.99 6.04-2.01.96zm-473 0 9.464 5.55L263 899l-15.102-7.12zm461 7-1.16.69a475 475 0 0 1-35.03 17l-.81.31zm-436 6 23 11-1.903-.74zm23 11 19 8-15.17-6zm376 1-2.55 1.13L645 917zm-17 6-18.6 7.62L622 926zm-340 1 22 8-5.479-1.61zm22 8 18 5-11.626-2.81zm295 0-6.19 2.04L603 931zm-277 5 25 6-10.901-2.11zm258 0-13.533 4.02L580 937zm-23 6-9.778 2.56L561 941zm-210 0 17 4-8.114-1.41zm17 4 29 4-18.693-2.07zm174 0-9.563 1.92L534 945zm-27 4-11.38 1.76-4.62.24zm-118 0 14 2-4.129-.24zm14 2 44.141 2.98L518 947.02l-5.164.85a355 355 0 0 1-77.129.06z"/></g></svg>