<svg xmlns="http://www.w3.org/2000/svg" xml:space="preserve" width="950" height="950" overflow="hidden"><defs><linearGradient id="a" x1="221.25" x2="1107.75" y1="1490.75" y2="2377.25" gradientUnits="userSpaceOnUse" spreadMethod="reflect"><stop offset="0" stop-color="#00B0F0"/><stop offset=".014" stop-color="#00AFEF"/><stop offset=".027" stop-color="#00AFEF"/><stop offset=".041" stop-color="#00AFEF"/><stop offset=".055" stop-color="#00AFEF"/><stop offset=".068" stop-color="#00AFEF"/><stop offset=".082" stop-color="#00AFEF"/><stop offset=".096" stop-color="#00AFEF"/><stop offset=".11" stop-color="#00AEEF"/><stop offset=".123" stop-color="#00AEEF"/><stop offset=".137" stop-color="#00AEEF"/><stop offset=".151" stop-color="#00ADEF"/><stop offset=".164" stop-color="#00ADEF"/><stop offset=".178" stop-color="#00ADEE"/><stop offset=".192" stop-color="#00ACEE"/><stop offset=".205" stop-color="#00ACEE"/><stop offset=".219" stop-color="#00ABEE"/><stop offset=".233" stop-color="#00ABEE"/><stop offset=".247" stop-color="#0AE"/><stop offset=".26" stop-color="#00AAED"/><stop offset=".274" stop-color="#00A9ED"/><stop offset=".288" stop-color="#00A8ED"/><stop offset=".301" stop-color="#00A8ED"/><stop offset=".315" stop-color="#00A7EC"/><stop offset=".329" stop-color="#00A6EC"/><stop offset=".342" stop-color="#00A6EC"/><stop offset=".356" stop-color="#00A5EC"/><stop offset=".37" stop-color="#00A4EB"/><stop offset=".384" stop-color="#00A3EB"/><stop offset=".397" stop-color="#00A2EB"/><stop offset=".411" stop-color="#00A2EA"/><stop offset=".425" stop-color="#00A1EA"/><stop offset=".438" stop-color="#00A0EA"/><stop offset=".452" stop-color="#009FE9"/><stop offset=".466" stop-color="#009EE9"/><stop offset=".479" stop-color="#009DE9"/><stop offset=".493" stop-color="#009CE8"/><stop offset=".507" stop-color="#009BE8"/><stop offset=".521" stop-color="#009AE8"/><stop offset=".534" stop-color="#0099E7"/><stop offset=".548" stop-color="#0098E7"/><stop offset=".562" stop-color="#0096E6"/><stop offset=".575" stop-color="#0095E6"/><stop offset=".589" stop-color="#0094E5"/><stop offset=".603" stop-color="#0093E5"/><stop offset=".616" stop-color="#0092E5"/><stop offset=".63" stop-color="#0090E4"/><stop offset=".644" stop-color="#008FE4"/><stop offset=".658" stop-color="#008EE3"/><stop offset=".671" stop-color="#008CE3"/><stop offset=".685" stop-color="#008BE2"/><stop offset=".699" stop-color="#008AE2"/><stop offset=".712" stop-color="#0088E1"/><stop offset=".726" stop-color="#0087E1"/><stop offset=".74" stop-color="#0085E0"/><stop offset=".753" stop-color="#0084E0"/><stop offset=".767" stop-color="#0082DF"/><stop offset=".781" stop-color="#0081DF"/><stop offset=".795" stop-color="#007FDE"/><stop offset=".808" stop-color="#007EDD"/><stop offset=".822" stop-color="#007CDD"/><stop offset=".836" stop-color="#007BDC"/><stop offset=".849" stop-color="#0079DC"/><stop offset=".863" stop-color="#0077DB"/><stop offset=".877" stop-color="#0076DA"/><stop offset=".89" stop-color="#0074DA"/><stop offset=".904" stop-color="#0072D9"/><stop offset=".918" stop-color="#0070D9"/><stop offset=".932" stop-color="#006FD8"/><stop offset=".945" stop-color="#006DD7"/><stop offset=".959" stop-color="#006BD7"/><stop offset=".973" stop-color="#0069D6"/><stop offset=".986" stop-color="#0067D5"/><stop offset="1" stop-color="#0166D5"/></linearGradient><linearGradient id="b" x1="647.25" x2="1283.75" y1="1539.75" y2="2176.25" gradientUnits="userSpaceOnUse" spreadMethod="reflect"><stop offset="0" stop-color="#FEB700"/><stop offset=".011" stop-color="#FDB600"/><stop offset=".021" stop-color="#FDB600"/><stop offset=".032" stop-color="#FDB600"/><stop offset=".043" stop-color="#FDB600"/><stop offset=".053" stop-color="#FDB600"/><stop offset=".064" stop-color="#FDB600"/><stop offset=".074" stop-color="#FDB600"/><stop offset=".085" stop-color="#FDB600"/><stop offset=".096" stop-color="#FDB500"/><stop offset=".106" stop-color="#FDB500"/><stop offset=".117" stop-color="#FDB500"/><stop offset=".128" stop-color="#FDB400"/><stop offset=".138" stop-color="#FDB400"/><stop offset=".149" stop-color="#FDB400"/><stop offset=".16" stop-color="#FDB300"/><stop offset=".17" stop-color="#FDB300"/><stop offset=".181" stop-color="#FDB300"/><stop offset=".191" stop-color="#FDB200"/><stop offset=".202" stop-color="#FDB200"/><stop offset=".213" stop-color="#FDB100"/><stop offset=".223" stop-color="#FDB100"/><stop offset=".234" stop-color="#FDB000"/><stop offset=".245" stop-color="#FCB000"/><stop offset=".255" stop-color="#FCAF00"/><stop offset=".266" stop-color="#FCAF00"/><stop offset=".277" stop-color="#FCAE00"/><stop offset=".287" stop-color="#FCAD00"/><stop offset=".298" stop-color="#FCAD00"/><stop offset=".309" stop-color="#FCAC00"/><stop offset=".319" stop-color="#FCAB00"/><stop offset=".33" stop-color="#FCAB00"/><stop offset=".34" stop-color="#FCAA00"/><stop offset=".351" stop-color="#FBA900"/><stop offset=".362" stop-color="#FBA800"/><stop offset=".372" stop-color="#FBA800"/><stop offset=".383" stop-color="#FBA700"/><stop offset=".394" stop-color="#FBA600"/><stop offset=".404" stop-color="#FBA500"/><stop offset=".415" stop-color="#FBA400"/><stop offset=".426" stop-color="#FAA300"/><stop offset=".436" stop-color="#FAA200"/><stop offset=".447" stop-color="#FAA200"/><stop offset=".457" stop-color="#FAA100"/><stop offset=".468" stop-color="#FAA000"/><stop offset=".479" stop-color="#FA9F00"/><stop offset=".489" stop-color="#FA9E00"/><stop offset=".5" stop-color="#F99D00"/><stop offset=".511" stop-color="#F99C00"/><stop offset=".521" stop-color="#F99A00"/><stop offset=".532" stop-color="#F99900"/><stop offset=".543" stop-color="#F99800"/><stop offset=".553" stop-color="#F99700"/><stop offset=".564" stop-color="#F89600"/><stop offset=".574" stop-color="#F89500"/><stop offset=".585" stop-color="#F89400"/><stop offset=".596" stop-color="#F89300"/><stop offset=".606" stop-color="#F89100"/><stop offset=".617" stop-color="#F79000"/><stop offset=".628" stop-color="#F78F00"/><stop offset=".638" stop-color="#F78E00"/><stop offset=".649" stop-color="#F78C00"/><stop offset=".66" stop-color="#F78B00"/><stop offset=".67" stop-color="#F68A00"/><stop offset=".681" stop-color="#F68800"/><stop offset=".691" stop-color="#F68700"/><stop offset=".702" stop-color="#F68600"/><stop offset=".713" stop-color="#F68400"/><stop offset=".723" stop-color="#F58300"/><stop offset=".734" stop-color="#F58100"/><stop offset=".745" stop-color="#F58000"/><stop offset=".755" stop-color="#F57E00"/><stop offset=".766" stop-color="#F47D00"/><stop offset=".777" stop-color="#F47B00"/><stop offset=".787" stop-color="#F47A00"/><stop offset=".798" stop-color="#F47800"/><stop offset=".809" stop-color="#F37700"/><stop offset=".819" stop-color="#F37500"/><stop offset=".83" stop-color="#F37400"/><stop offset=".84" stop-color="#F37200"/><stop offset=".851" stop-color="#F27000"/><stop offset=".862" stop-color="#F26F00"/><stop offset=".872" stop-color="#F26D00"/><stop offset=".883" stop-color="#F26B00"/><stop offset=".894" stop-color="#F16A00"/><stop offset=".904" stop-color="#F16800"/><stop offset=".915" stop-color="#F16600"/><stop offset=".926" stop-color="#F16400"/><stop offset=".936" stop-color="#F06300"/><stop offset=".947" stop-color="#F06100"/><stop offset=".957" stop-color="#F05F00"/><stop offset=".968" stop-color="#EF5D00"/><stop offset=".979" stop-color="#EF5B00"/><stop offset=".989" stop-color="#EF5900"/><stop offset="1" stop-color="#EF5800"/></linearGradient></defs><g fill-rule="evenodd"><path fill="url(#a)" d="M727.885 1459v229.67l-49.431 4.98C566.686 1716.53 482.61 1815.44 482.61 1934c0 135.49 109.814 245.33 245.275 245.33 67.731 0 129.05-27.46 173.436-71.86l6.027-7.3L1076 2256.33l-6.8 7.48-12.59 12.5-19.41 17.64-12.96 10.86-21.81 16.31-13.095 9.23-25.078 15.24-12.019 7.05-37.048 17.85-16.37 6.28-23.478 8.59-19.139 5.6-22.865 5.88-18.934 3.91-26.653 4.07-15.902 1.96-43.963 2.22-44.247-2.23-14.61-1.79-28.38-4.34-17.749-3.68-24.085-6.19-18.809-5.56-21.927-8.03-18.842-7.34-22.511-10.84-15.64-7.67-9.528-5.71-26.888-16.34-11.949-8.62-21.406-16.01-49.612-46.2-9.5-10.45-41.265-53.62-14.306-23.55-7.041-11.92-1.103-2.27-16.367-33.99-7.196-18.47-7.874-21.52-5.784-19.37-5.974-23.23-3.851-18.17-4.435-29.06-1.732-13.57L253 1934.2l.066-1.7 2.138-42.36 1.988-16.18 4.044-26.5 4.246-20.25 5.564-21.65 6.306-21.04 7.677-20.98 7.528-19.1 12.371-25.68 6.157-12.45 21.47-35.35 42.334-53.91 8.963-9.87 49.308-45.21 19.54-14.62 12.67-9.05 30.691-18.65 4.853-2.91 10.862-5.35 26.937-12.98 17.383-6.86 22.879-8.38 18.548-5.61 24.062-6.19 18.164-3.88 27.906-4.26 15.524-1.97z" transform="translate(-253 -1459)"/><path fill="#00B0F0" fill-opacity=".788" d="m475 0-45 3 4.358-.73A363 363 0 0 1 475 0"/><path fill="url(#b)" d="M728.001 1459C990.336 1459 1203 1671.84 1203 1934.4c0 114.87-40.71 220.22-108.47 302.4l-18.34 20.2-168.688-156.29 23.929-29.03c26.452-39.18 41.898-86.43 41.898-137.28 0-135.6-109.837-245.54-245.329-245.54z" transform="translate(-253 -1459)"/><path fill="#00B0F0" fill-opacity=".788" d="m430 3-15 2 11.281-1.8zm-15 2-28 4 8.219-1.64zm-28 4-18 4 10.497-2.81zm-18 4-24 6 11.784-3.46zm-24 6-19 5 7.879-2.51zm-19 5-23 9 15.847-6.69zm-23 9-17 7 4.227-2.12zm-17 7-27 13 23.946-11.79zm-27 13-11.059 5.19L243 61l5.56-3.21zm-16 8-31 19 2.417-1.74zm-31 19-12 9 9.156-7.19zm-12 9-20 14 3.287-2.82zm-20 14-49 45 8.181-9.02a477 477 0 0 1 33.513-30.51zm-49 45-9 10 4.634-5.96zm-9 10-42 54 1.527-2.54a477 477 0 0 1 27.123-36.63zm-42 54-22 36 .286-.57a481 481 0 0 1 20.711-34.16zm-22 36-6 12 5.242-10.77zm-6 12-12 26 1.266-3.35zm-12 26-8 19 5.611-14.36zm-8 19-8 21 1.958-6.28zm-8 21-6 21 3.134-12.79zm-6 21-5 21 1.929-9.94zm-5 21-5 21 1.651-9.53zm-5 21-4 26 2.12-17.1zm-4 26-2 16 .239-4.65zm-2 16-2 43 1.312-36.92zm-1 43-.867 1-.133-.12zm-.954 1L2 520l-.5-4.55A549 549 0 0 1 0 476.38zM2 520l2 14-1.807-10.59zm2 14 5 29-2.051-8.56zm5 29 3 18-2.068-10.23zm3 18 6 24-3.624-12.47zm6 24 6 19-2.812-7.27zm6 19 8 21-6.306-15.55zm8 21 7 19-1.762-3.87zm7 19 17 34-16.374-32.45zm17 34 1.084 2.24L64 712l-6.213-10.27zm8 14 14 24-1.659-2.24zm14 24 41 53-10.7-11.72a470 470 0 0 1-27.163-36.14zm41 53 10 11-5.401-5.03zm704.58 9 .42.33-8 6.67zM129 800l49 46-5.439-4.1a476 476 0 0 1-33.308-30.52zm687 5-5.25 5.82L804 817zm-12 12-9.18 9.03L784 835zm-20 18-7.26 6.66L771 846zm-606 11 22 16-19.171-13.44zm593 0-6.85 5.85L750 862zm-571 16 12 8-2.313-1.3zm550 0-9.651 7.32L736 872zm-538 8 27 17-25.237-15.68zm524 2-4.471 3.11L711 887zm-25 15-9.992 6.04L699 894zm-472 0 9.464 5.55L264 900l-15.102-7.12zm460 7-1.159.69a474 474 0 0 1-35.028 17L662 912zm-435 6 22 11-1.82-.74zm22 11 19 7-15.17-5.25zm376 1-2.398 1.13L646 918zm-16 6-19.414 7.62L622 927zm-341 0 22 8-5.479-1.61zm22 8 19 6-12.272-3.37zm295 1-6.192 2.04L603 932zm-276 5 24 6-10.465-2.11zm257 0-13.533 4.02L580 938zm-23 6-9.263 2.56L562 942zm-210 0 18 4-8.591-1.41zm18 4 28 4-18.048-2.07zm174 0-9.563 1.92L535 946zm-27 4-11.38 1.76-4.62.24zm-119 0 15 2-4.424-.24zm15 2 44.141 1.99L519 948.01l-5.164.57a532 532 0 0 1-77.129.04z"/></g></svg>