<svg xmlns="http://www.w3.org/2000/svg" xml:space="preserve" width="1063" height="949" overflow="hidden"><g fill-rule="evenodd"><path fill="#00B0F0" d="M350 74c0 40.87-33.131 74.001-74 74.001L74 148c-40.869 0-74-33.131-74-74S33.131 0 74 0h202c40.869 0 74 33.131 74 74m242 267c0 40.869-33.131 74-74 74h-92c-40.869 0-74-33.131-74-74s33.131-74 74-74h92c40.869 0 74 33.131 74 74"/><path fill="#99DFF9" d="M959 608c0 40.869-33.13 74-74 74H208.999C168.131 682 135 648.869 135 608s33.131-74 73.999-74H885c40.87 0 74 33.131 74 74"/><path fill="#00B0F0" d="M1063 874.5c0 41.15-33.35 74.5-74.5 74.5h-201c-41.15 0-74.5-33.35-74.5-74.5 0-41.14 33.35-74.5 74.5-74.5h201c41.15 0 74.5 33.36 74.5 74.5"/></g></svg>