<svg xmlns="http://www.w3.org/2000/svg" xml:space="preserve" overflow="hidden" viewBox="0 0 579 516"><g fill="#FFF" fill-rule="evenodd"><path fill-opacity=".8" d="M191 40.5c0 22.368-18.13 40.5-40.5 40.5h-110C18.13 81 0 62.868 0 40.5S18.13 0 40.5 0h110C172.87 0 191 18.133 191 40.5m132 145c0 22.368-18.13 40.5-40.5 40.5h-50c-22.37 0-40.5-18.132-40.5-40.5s18.13-40.5 40.5-40.5h50c22.37 0 40.5 18.133 40.5 40.5"/><path fill-opacity=".502" d="M523 330.5c0 22.368-18.13 40.5-40.5 40.5h-368C92.13 371 74 352.868 74 330.5S92.13 290 114.5 290h368c22.37 0 40.5 18.133 40.5 40.5"/><path fill-opacity=".8" d="M579 476c0 22.091-17.91 40-40 40H428c-22.09 0-40-17.909-40-40s17.91-40 40-40h111c22.09 0 40 17.909 40 40"/></g></svg>