<svg xmlns="http://www.w3.org/2000/svg" xml:space="preserve" overflow="hidden" viewBox="0 0 592 529"><g fill="#FFF" fill-rule="evenodd"><path fill-opacity=".8" d="M416.5 114c32.31 0 58.5 26.191 58.5 58.5v298c0 32.309-26.19 58.5-58.5 58.5S358 502.809 358 470.5v-298c0-32.309 26.19-58.5 58.5-58.5M58.5 0C90.81 0 117 26.191 117 58.5v412c0 32.309-26.19 58.5-58.5 58.5S0 502.809 0 470.5v-412C0 26.191 26.19 0 58.5 0"/><path fill-opacity=".502" d="M175.5 152c32.31 0 58.5 26.191 58.5 58.5v260c0 32.309-26.19 58.5-58.5 58.5S117 502.809 117 470.5v-260c0-32.309 26.19-58.5 58.5-58.5m358 115c32.31 0 58.5 26.191 58.5 58.5v145c0 32.309-26.19 58.5-58.5 58.5S475 502.809 475 470.5v-145c0-32.309 26.19-58.5 58.5-58.5"/></g></svg>