<svg xmlns="http://www.w3.org/2000/svg" xml:space="preserve" width="1063" height="950" overflow="hidden"><g fill-rule="evenodd"><path fill="#00B0F0" d="M748 204c57.99 0 105 47.01 105 105v535c0 57.99-47.01 105-105 105s-105-47.01-105-105V309c0-57.99 47.01-105 105-105M105.001 0c57.99 0 105 47.01 105 105L210 844c0 57.99-47.01 105-105 105h.001C47.01 949 0 901.99 0 844V105C0 47.01 47.01 0 105.001 0"/><path fill="#99DFF9" d="M316 272c57.99 0 105.001 47.01 105.001 105L421 844c0 57.99-47.01 105-105 105s-105-47.01-105-105V377c0-57.99 47.01-105 105-105m642 207c57.99 0 105 47.01 105 105v260c0 57.99-47.01 105-105 105s-105-47.01-105-105V584c0-57.99 47.01-105 105-105"/></g></svg>