<svg xmlns="http://www.w3.org/2000/svg" fill="none" viewBox="0 0 685 613"><g clip-path="url(#a)"><mask id="b" width="685" height="613" x="0" y="0" maskUnits="userSpaceOnUse" style="mask-type:luminance"><path fill="#fff" d="M685 0H0v613h685z"/></mask><g fill-rule="evenodd" clip-rule="evenodd" mask="url(#b)"><path fill="#fff" fill-opacity=".502" d="M303.941 229.009c-40.425-10.007-74.915-12.028-104.034 12.858-31.605 27.011-60.314 76.636-87.717 139.85-27.235 62.826-52.412 137.168-77.794 212.141l-22.792-7.716.107-.317c25.263-74.619 50.733-149.851 78.402-213.678 27.539-63.53 58.035-117.697 94.16-148.572l7.793 9.118-7.793-9.118c38.611-32.999 83.696-28.259 125.45-17.923 10.528 2.606 21.091 5.635 31.437 8.623l1.831.529c9.781 2.826 19.36 5.593 28.865 8.032 20.265 5.198 39.251 8.638 56.986 7.83l.548 12.019-.547-12.019c77.213-3.515 153.154-17.233 230.016-31.135l4.282 23.678-.407.074c-76.466 13.83-153.851 27.827-232.797 31.421-21.34.972-43.087-3.18-64.06-8.561-9.87-2.532-19.778-5.394-29.476-8.197l-1.917-.553c-10.38-2.998-20.525-5.904-30.543-8.384"/><path fill="#fff" fill-opacity=".8" d="M260.015 296.254c-19.058 38.834-37.722 74.471-55.324 98.899C136.405 489.919 83.773 542.898 31.56 595.455l-.025.024-17.07-16.958c51.979-52.322 103.54-104.227 170.704-197.436 16.263-22.57 34.129-56.482 53.245-95.432 7.412-15.105 15.028-30.999 22.768-47.154 11.968-24.978 24.234-50.579 36.511-74.847 20.263-40.055 41.202-77.82 62.24-105.477 10.518-13.829 21.432-25.632 32.721-33.951 11.279-8.311 23.83-13.788 37.249-13.215l-.513 12.02.513-12.02c13.638.582 26.528 7.926 38.122 17.816 11.788 10.056 23.593 23.91 35.19 39.997 23.218 32.209 46.825 75.115 68.827 119.316 22.048 44.293 42.723 90.38 59.995 129.112l2.911 6.529c16.054 36.012 28.663 64.296 36.544 78.34l-20.984 11.776c-8.453-15.063-21.465-44.258-37.08-79.292l-3.367-7.552c-17.28-38.749-37.767-84.408-59.56-128.191-21.84-43.874-44.754-85.376-66.806-115.968-11.038-15.313-21.555-27.459-31.286-35.76-9.925-8.467-17.75-11.836-23.532-12.083-6.001-.256-13.225 2.118-21.949 8.546-8.714 6.421-18.031 16.247-27.843 29.147-19.624 25.799-39.745 61.89-59.921 101.772-12.216 24.149-24.215 49.198-36.057 73.916-7.76 16.199-15.452 32.256-23.092 47.824"/><path fill="#99BAEA" d="M170 233c0-13.807 10.97-25 24.5-25s24.5 11.193 24.5 25-10.97 25-24.5 25-24.5-11.193-24.5-25m235 12c0-13.807 11.19-25 25-25s25 11.193 25 25-11.19 25-25 25-25-11.193-25-25m231-34c0-13.807 10.97-25 24.5-25s24.5 11.193 24.5 25-10.97 25-24.5 25-24.5-11.193-24.5-25"/><path fill="#fff" d="M419 245c0-5.523 4.7-10 10.5-10s10.5 4.477 10.5 10-4.7 10-10.5 10-10.5-4.477-10.5-10m231-34c0-5.523 4.7-10 10.5-10s10.5 4.477 10.5 10-4.7 10-10.5 10-10.5-4.477-10.5-10m-466 22c0-5.523 4.7-10 10.5-10s10.5 4.477 10.5 10-4.7 10-10.5 10-10.5-4.477-10.5-10"/><path fill="#D6E3F6" d="M405 25c0-13.807 11.19-25 25-25s25 11.193 25 25-11.19 25-25 25-25-11.193-25-25"/><path fill="#fff" d="M419 25c0-5.523 4.7-10 10.5-10S440 19.477 440 25s-4.7 10-10.5 10S419 30.523 419 25"/><path fill="#D6E3F6" d="M636 409c0-13.807 10.97-25 24.5-25s24.5 11.193 24.5 25-10.97 25-24.5 25-24.5-11.193-24.5-25"/><path fill="#fff" d="M650 408.5c0-5.799 4.7-10.5 10.5-10.5s10.5 4.701 10.5 10.5-4.7 10.5-10.5 10.5-10.5-4.701-10.5-10.5"/><path fill="#D6E3F6" d="M170 390c0-13.807 10.97-25 24.5-25s24.5 11.193 24.5 25-10.97 25-24.5 25-24.5-11.193-24.5-25"/><path fill="#fff" d="M184 390c0-5.523 4.7-10 10.5-10s10.5 4.477 10.5 10-4.7 10-10.5 10-10.5-4.477-10.5-10"/><path fill="#D6E3F6" d="M0 588c0-13.807 10.97-25 24.5-25S49 574.193 49 588s-10.97 25-24.5 25S0 601.807 0 588"/><path fill="#fff" d="M14 588c0-5.523 4.7-10 10.5-10S35 582.477 35 588s-4.7 10-10.5 10S14 593.523 14 588"/></g></g><defs><clipPath id="a"><path fill="#fff" d="M0 0h685v613H0z"/></clipPath></defs></svg>