<svg xmlns="http://www.w3.org/2000/svg" width="479" height="428" fill="none"><mask id="a" width="479" height="428" x="0" y="0" maskUnits="userSpaceOnUse" style="mask-type:luminance"><path fill="#fff" d="M479 0H0v427.871h479z"/></mask><g fill-rule="evenodd" clip-rule="evenodd" mask="url(#a)"><path fill="url(#b)" d="M282.556 17.492c0-9.66 7.831-17.492 17.492-17.492 9.659 0 17.491 7.831 17.491 17.492 0 9.66-7.832 17.491-17.491 17.491-9.661 0-17.492-7.831-17.492-17.491"/><path fill="url(#c)" d="M118.405 271.792c0-9.66 7.831-17.491 17.491-17.491s17.492 7.831 17.492 17.491-7.832 17.492-17.492 17.492-17.491-7.832-17.491-17.492"/><path fill="url(#d)" d="M444.017 285.247c0-9.66 7.832-17.491 17.491-17.491S479 275.587 479 285.247s-7.833 17.492-17.492 17.492-17.491-7.831-17.491-17.492"/><path fill="url(#e)" d="M213.01 157.053c-28.421-7.009-53.838-8.752-75.367 9.579l-3.532-4.116 3.532 4.116c-22.651 19.287-42.94 54.406-62.113 98.469-19.096 43.888-36.735 95.786-54.467 147.969l-10.3-3.472.05-.144c17.678-52.022 35.45-104.321 54.741-148.66 19.234-44.205 40.331-81.368 65.025-102.394 25.817-21.983 56.022-19.017 85.044-11.859 7.296 1.799 14.627 3.893 21.864 5.976l1.291.371c6.827 1.965 13.563 3.904 20.251 5.614 14.253 3.643 27.866 6.126 40.708 5.544 54.206-2.46 107.488-12.053 161.181-21.729l1.936 10.657-.158.029c-53.523 9.645-107.467 19.366-162.464 21.861-14.472.657-29.332-2.147-43.905-5.872-6.854-1.752-13.738-3.734-20.527-5.688l-1.331-.383c-7.251-2.086-14.394-4.125-21.459-5.868"/><path fill="url(#f)" d="M178.561 205.313c-13.296 27.079-26.211 51.703-38.319 68.499C92.778 339.65 56.216 376.436 19.847 413.029l-.041.041-7.696-7.633.018-.019c36.268-36.491 72.35-72.794 119.313-137.938 11.505-15.959 24.061-39.806 37.382-66.938 5.198-10.585 10.518-21.685 15.919-32.952 8.328-17.374 16.847-35.146 25.398-52.042 14.118-27.895 28.617-54.008 43.11-73.054 7.247-9.523 14.659-17.505 22.213-23.07 7.549-5.56 15.644-8.994 24.087-8.634 8.542.364 16.906 4.993 24.784 11.71 7.965 6.792 16.038 16.237 24.055 27.353 16.045 22.249 32.42 51.978 47.741 82.743 15.342 30.806 29.735 62.873 41.78 89.869l2.086 4.675c11.138 24.974 19.981 44.801 25.549 54.717l-9.459 5.3c-5.825-10.374-14.851-30.612-25.792-55.147l-2.29-5.134c-12.048-27.003-26.357-58.878-41.584-89.454-15.248-30.619-31.311-59.716-46.831-81.236-7.765-10.768-15.257-19.443-22.296-25.445-7.126-6.076-13.206-8.913-18.205-9.127-5.098-.217-10.791 1.819-17.189 6.531-6.393 4.709-13.086 11.8-20.015 20.906-13.857 18.209-27.987 43.569-42.065 71.385-8.524 16.843-16.923 34.366-25.194 51.624-5.41 11.286-10.764 22.459-16.064 33.253"/><path fill="url(#g)" d="M118.405 162.806c0-9.66 7.831-17.491 17.491-17.491s17.492 7.831 17.492 17.491-7.832 17.492-17.492 17.492-17.491-7.831-17.491-17.492"/><path fill="url(#h)" d="M0 410.379c0-9.659 7.831-17.491 17.492-17.491 9.66 0 17.491 7.832 17.491 17.491s-7.831 17.492-17.491 17.492S0 420.038 0 410.379"/><path fill="url(#i)" d="M282.556 170.879c0-9.66 7.831-17.491 17.492-17.491 9.659 0 17.491 7.831 17.491 17.491s-7.832 17.492-17.491 17.492c-9.661 0-17.492-7.831-17.492-17.492"/><path fill="url(#j)" d="M444.017 147.333c0-9.289 7.832-16.819 17.491-16.819S479 138.044 479 147.333s-7.833 16.819-17.492 16.819-17.491-7.53-17.491-16.819"/><path fill="#fff" d="M293.32 170.879c0-3.715 3.314-6.727 7.401-6.727 4.088 0 7.4 3.012 7.4 6.727s-3.312 6.728-7.4 6.728c-4.087 0-7.401-3.013-7.401-6.728m160.115-23.546a7.4 7.4 0 0 1 7.401-7.4 7.4 7.4 0 0 1 7.4 7.4 7.4 7.4 0 0 1-7.4 7.4 7.4 7.4 0 0 1-7.401-7.4m0 137.914c0-3.715 3.312-6.727 7.401-6.727 4.088 0 7.4 3.012 7.4 6.727s-3.312 6.728-7.4 6.728-7.401-3.012-7.401-6.728m-324.267-13.455c0-3.715 3.314-6.727 7.401-6.727s7.4 3.012 7.4 6.727-3.313 6.728-7.4 6.728-7.401-3.013-7.401-6.728M10.764 410.379a6.726 6.726 0 0 1 6.727-6.727 6.726 6.726 0 0 1 6.728 6.727 6.727 6.727 0 0 1-6.728 6.728 6.727 6.727 0 0 1-6.727-6.728m118.404-247.573c0-3.715 3.314-6.727 7.401-6.727s7.4 3.012 7.4 6.727-3.313 6.728-7.4 6.728-7.401-3.012-7.401-6.728M293.32 16.819a7.4 7.4 0 1 1 14.802 0 7.4 7.4 0 0 1-14.802 0"/></g><defs><linearGradient id="b" x1="300.048" x2="300.048" y1="0" y2="34.983" gradientUnits="userSpaceOnUse"><stop stop-color="#EF5A00"/><stop offset="1" stop-color="#FDB600"/></linearGradient><linearGradient id="c" x1="135.896" x2="135.896" y1="254.301" y2="289.284" gradientUnits="userSpaceOnUse"><stop stop-color="#EF5A00"/><stop offset="1" stop-color="#FDB600"/></linearGradient><linearGradient id="d" x1="461.508" x2="461.508" y1="267.756" y2="302.739" gradientUnits="userSpaceOnUse"><stop stop-color="#EF5A00"/><stop offset="1" stop-color="#FDB600"/></linearGradient><linearGradient id="e" x1="214.576" x2="473.988" y1="64.052" y2="392.001" gradientUnits="userSpaceOnUse"><stop stop-color="#0034BD"/><stop offset=".503" stop-color="#00A4F6"/></linearGradient><linearGradient id="f" x1="238.827" x2="238.827" y1="10.764" y2="413.07" gradientUnits="userSpaceOnUse"><stop stop-color="#EF5A00"/><stop offset="1" stop-color="#FDB600"/></linearGradient><linearGradient id="g" x1="134.176" x2="167.235" y1="135.375" y2="160.5" gradientUnits="userSpaceOnUse"><stop stop-color="#0034BD"/><stop offset=".503" stop-color="#00A4F6"/></linearGradient><linearGradient id="h" x1="17.492" x2="17.492" y1="392.888" y2="427.871" gradientUnits="userSpaceOnUse"><stop stop-color="#EF5A00"/><stop offset="1" stop-color="#FDB600"/></linearGradient><linearGradient id="i" x1="298.327" x2="331.386" y1="143.448" y2="168.573" gradientUnits="userSpaceOnUse"><stop stop-color="#0034BD"/><stop offset=".503" stop-color="#00A4F6"/></linearGradient><linearGradient id="j" x1="459.788" x2="491.888" y1="120.956" y2="146.329" gradientUnits="userSpaceOnUse"><stop stop-color="#0034BD"/><stop offset=".503" stop-color="#00A4F6"/></linearGradient></defs></svg>