<svg xmlns="http://www.w3.org/2000/svg" width="356" height="318" fill="none"><mask id="a" width="356" height="318" x="0" y="0" maskUnits="userSpaceOnUse" style="mask-type:luminance"><path fill="#fff" d="M356 0H0v318h356z"/></mask><g fill-rule="evenodd" clip-rule="evenodd" mask="url(#a)"><path fill="#00B0F0" d="M210 13c0-7.18 5.82-13 13-13s13 5.82 13 13-5.821 13-13 13-13-5.82-13-13M88 202c0-7.18 5.82-13 13-13s13 5.82 13 13-5.82 13-13 13-13-5.82-13-13m242 10c0-7.18 5.821-13 13-13s13 5.82 13 13-5.821 13-13 13-13-5.82-13-13"/><path fill="#99DFF9" d="M158.312 116.724c-21.123-5.209-40.013-6.504-56.013 7.119l-2.626-3.059 2.626 3.059c-16.835 14.335-31.915 40.436-46.164 73.184-14.192 32.618-27.302 71.19-40.48 109.973L8 304.419l.036-.106c13.139-38.664 26.347-77.533 40.685-110.487 14.295-32.853 29.974-60.474 48.327-76.101 19.188-16.338 41.637-14.133 63.206-8.814 5.423 1.338 10.872 2.894 16.25 4.442l.96.276c5.073 1.46 10.079 2.901 15.051 4.172 10.592 2.708 20.71 4.553 30.254 4.12 40.287-1.828 79.887-8.957 119.792-16.149l1.439 7.921-.118.021c-39.779 7.168-79.87 14.393-120.745 16.248-10.756.488-21.8-1.596-32.631-4.365-5.094-1.302-10.21-2.775-15.256-4.227l-.989-.285c-5.389-1.55-10.698-3.066-15.949-4.361"/><path fill="#00B0F0" d="M132.709 152.592c-9.882 20.125-19.48 38.426-28.479 50.909-35.276 48.932-62.45 76.272-89.48 103.468l-.03.031L9 301.327l.014-.014c26.955-27.121 53.771-54.102 88.675-102.518 8.551-11.861 17.883-29.585 27.783-49.749 3.863-7.867 7.817-16.117 11.831-24.49 6.19-12.913 12.521-26.121 18.876-38.68 10.493-20.73 21.268-40.138 32.04-54.294 5.386-7.078 10.895-13.01 16.509-17.145 5.611-4.133 11.627-6.685 17.902-6.418 6.349.271 12.565 3.711 18.42 8.704 5.92 5.047 11.919 12.067 17.878 20.329 11.925 16.535 24.095 38.63 35.482 61.495 11.402 22.896 22.099 46.729 31.051 66.792l1.55 3.475c8.279 18.561 14.851 33.297 18.989 40.666l-7.03 3.939c-4.33-7.71-11.037-22.751-19.169-40.986l-1.702-3.815c-8.955-20.07-19.589-43.759-30.906-66.484-11.333-22.756-23.271-44.381-34.805-60.375-5.772-8.003-11.34-14.451-16.571-18.912-5.297-4.516-9.815-6.625-13.531-6.783-3.788-.162-8.019 1.352-12.774 4.854-4.752 3.5-9.726 8.77-14.876 15.537-10.298 13.534-20.8 32.381-31.263 53.055-6.336 12.518-12.578 25.541-18.725 38.368-4.02 8.388-8 16.691-11.939 24.714"/><path fill="#99DFF9" d="M88 121c0-7.18 5.82-13 13-13s13 5.82 13 13-5.82 13-13 13-13-5.82-13-13"/><path fill="#00B0F0" d="M0 305c0-7.179 5.82-13 13-13s13 5.821 13 13-5.82 13-13 13-13-5.821-13-13"/><path fill="#99DFF9" d="M210 127c0-7.18 5.82-13 13-13s13 5.82 13 13-5.821 13-13 13-13-5.82-13-13m120-17.5c0-6.904 5.821-12.5 13-12.5s13 5.596 13 12.5-5.821 12.5-13 12.5-13-5.596-13-12.5"/><path fill="#fff" d="M218 127c0-2.762 2.463-5 5.5-5 3.039 0 5.5 2.238 5.5 5s-2.461 5-5.5 5c-3.037 0-5.5-2.239-5.5-5m119-17.5a5.5 5.5 0 1 1 11 0c0 3.038-2.461 5.5-5.5 5.5a5.5 5.5 0 0 1-5.5-5.5m0 102.5c0-2.761 2.461-5 5.5-5s5.5 2.239 5.5 5-2.461 5-5.5 5-5.5-2.239-5.5-5M96 202c0-2.761 2.463-5 5.5-5s5.5 2.239 5.5 5-2.462 5-5.5 5-5.5-2.239-5.5-5M8 305a5 5 0 0 1 5-5c2.762 0 5 2.237 5 5s-2.238 5-5 5a5 5 0 0 1-5-5m88-184c0-2.761 2.463-5 5.5-5s5.5 2.239 5.5 5-2.462 5-5.5 5-5.5-2.238-5.5-5M218 12.5a5.5 5.5 0 1 1 11 0 5.5 5.5 0 0 1-11 0"/></g></svg>