<svg xmlns="http://www.w3.org/2000/svg" width="278" height="248" fill="none"><g fill-rule="evenodd" clip-path="url(#a)" clip-rule="evenodd"><path fill="#00B0F0" d="M164.13 10.061C164.13 4.505 168.642 0 174.208 0s10.078 4.505 10.078 10.061-4.513 10.061-10.078 10.061c-5.566 0-10.078-4.505-10.078-10.06M68.846 157.711c0-5.556 4.512-10.061 10.078-10.061s10.078 4.505 10.078 10.061-4.512 10.061-10.078 10.061-10.079-4.505-10.079-10.061m188.999 7.579c0-5.556 4.513-10.061 10.078-10.061S278 159.734 278 165.29s-4.513 10.061-10.078 10.061-10.078-4.505-10.078-10.061"/><path fill="#99DFF9" d="M268.304 88.818c-28.272 4.659-50.297 7.394-93.93 12.662l-.211.025-.213-.003c-21.221-.311-36.043-1.069-56.442-2.113-10.549-.54-22.59-1.155-37.78-1.825-26.68 49.154-40.243 80.237-55.006 114.071-3.962 9.081-8.01 18.359-12.422 28.237l-5.753-2.56c4.384-9.817 8.417-19.058 12.37-28.119 14.951-34.267 28.773-65.944 56.215-116.358l.94-1.725 1.965.086c16.252.709 28.918 1.357 39.925 1.92 20.242 1.035 34.871 1.784 55.867 2.096 43.501-5.253 65.375-7.972 93.449-12.599z"/><path fill="#00B0F0" d="m174.078 3.188 2.616 4.337c36.399 60.341 56.268 93.042 68.147 112.593 16.213 26.683 17.542 28.871 25.697 43.402l-5.495 3.074c-8.104-14.44-9.385-16.548-25.492-43.057-11.565-19.033-30.773-50.645-65.637-108.431-34.224 53.397-50.851 80.223-61.236 96.979-12.757 20.584-16.096 25.971-31.07 46.754l-.062.085-.068.081c-3.716 4.492-7.253 8.777-10.637 12.877-24.165 29.273-40.562 49.137-59.181 67.879l-4.472-4.428c18.4-18.522 34.595-38.14 58.798-67.458 3.36-4.07 6.873-8.326 10.57-12.793 14.816-20.566 18.055-25.793 30.637-46.098 10.595-17.1 27.814-44.89 64.151-101.533z"/><path fill="#99DFF9" d="M68.846 94.47c0-5.556 4.512-10.061 10.078-10.061s10.078 4.505 10.078 10.061-4.512 10.061-10.078 10.061-10.079-4.505-10.079-10.061"/><path fill="#00B0F0" d="M0 237.939c0-5.556 4.512-10.061 10.078-10.061s10.078 4.505 10.078 10.061S15.644 248 10.078 248 0 243.495 0 237.939"/><path fill="#99DFF9" d="M164.13 99.174c0-5.556 4.512-10.061 10.078-10.061s10.078 4.505 10.078 10.06c0 5.557-4.513 10.062-10.078 10.062-5.566 0-10.078-4.505-10.078-10.061m93.714-13.589c0-5.556 4.513-10.061 10.078-10.061S278 80.029 278 85.584c0 5.557-4.513 10.062-10.078 10.062s-10.078-4.505-10.078-10.061"/><path fill="#fff" d="M170.151 99.174c0-2.237 1.875-4.05 4.188-4.05 2.314 0 4.188 1.813 4.188 4.05s-1.874 4.05-4.188 4.05-4.188-1.813-4.188-4.05m93.452-13.72a4.183 4.183 0 0 1 4.188-4.181 4.183 4.183 0 0 1 4.188 4.181 4.183 4.183 0 0 1-4.188 4.181 4.183 4.183 0 0 1-4.188-4.18m0 79.965a4.183 4.183 0 0 1 4.188-4.181 4.183 4.183 0 0 1 4.188 4.181 4.183 4.183 0 0 1-4.188 4.182 4.183 4.183 0 0 1-4.188-4.182m-188.737-7.578a4.184 4.184 0 0 1 4.189-4.181 4.184 4.184 0 0 1 4.188 4.181 4.184 4.184 0 0 1-4.188 4.181 4.184 4.184 0 0 1-4.189-4.181M6.02 237.808c0-2.31 1.817-4.181 4.058-4.181s4.058 1.871 4.058 4.181-1.817 4.181-4.058 4.181-4.057-1.871-4.057-4.181M74.866 94.34a4.184 4.184 0 0 1 4.189-4.182 4.184 4.184 0 0 1 4.188 4.181 4.184 4.184 0 0 1-4.188 4.182 4.184 4.184 0 0 1-4.189-4.182m95.285-84.278c0-2.237 1.875-4.05 4.188-4.05 2.314 0 4.188 1.813 4.188 4.05s-1.874 4.05-4.188 4.05-4.188-1.813-4.188-4.05"/></g><defs><clipPath id="a"><path fill="#fff" d="M0 0h278v248H0z"/></clipPath></defs></svg>