<svg xmlns="http://www.w3.org/2000/svg" xml:space="preserve" overflow="hidden" viewBox="0 0 664 592"><g fill="#FFF"><path fill-opacity=".8" d="M131 395h155v197H131zM286 84h247v508H286z"/><path fill-opacity=".8" fill-rule="evenodd" d="M533 592h65.5c36.175 0 65.5-29.325 65.5-65.5V350H533Zm-402 0H65.5C29.32 592 0 562.675 0 526.5V185h131Z"/><path fill-opacity=".502" fill-rule="evenodd" d="M131 0H65.5C29.325 0 0 29.325 0 65.5V185h131Z"/><path fill-opacity=".502" d="M131 0h155v395H131zm155 0h247v84H286z"/><path fill-opacity=".502" fill-rule="evenodd" d="M533 0h65.5C634.67 0 664 29.325 664 65.5V350H533Z"/></g></svg>