<svg xmlns="http://www.w3.org/2000/svg" xml:space="preserve" width="1065" height="949" overflow="hidden"><path fill="#00B0F0" d="M210 634h249v315H210zm249-499h395v814H459z"/><path fill="#00B0F0" fill-rule="evenodd" d="M854 949h105.5c58.266 0 105.5-47.234 105.5-105.5V561H854Zm-644 0H105C47.01 949-.001 901.99-.001 844L0 298h210Z"/><path fill="#99DFF9" fill-rule="evenodd" d="M210 0H105C47.01 0 0 47.01 0 105v193h210Z"/><path fill="#99DFF9" d="M210 0h249v645H210zm249 0h409v135H459z"/><path fill="#99DFF9" fill-rule="evenodd" d="M854 0h105.5c58.27 0 105.5 47.234 105.5 105.5V561H854Z"/></svg>