<svg width="230" height="228" viewBox="0 0 230 228" fill="none" xmlns="http://www.w3.org/2000/svg"><path d="M36 35 3.5 115 116 225.5 226.5 115 116 2.5z" fill="#06B0F0"/><path d="M116 192.5 36.5 115l23-56.5 56.5-23 78.5.5-1 78.75.5 78.25z" fill="#99DFF9"/><use href="#chart_scale"/><circle cx="194" cy="193" r="1.5" fill="#fff" stroke="#99DFF9"/><circle cx="116" cy="36" r="2" fill="#fff" stroke="#99DFF9" stroke-width="2"/><circle cx="195" cy="36" r="2" fill="#fff" stroke="#99DFF9" stroke-width="2"/><circle cx="193" cy="115" r="2" fill="#fff" stroke="#99DFF9" stroke-width="2"/><circle cx="37" cy="115" r="2" fill="#fff" stroke="#99DFF9" stroke-width="2"/><circle cx="116" cy="193" r="2" fill="#fff" stroke="#99DFF9" stroke-width="2"/><circle cx="116" cy="3" r="2" fill="#fff" stroke="#06B0F0" stroke-width="2"/><circle cx="60" cy="171" r="2" fill="#fff" stroke="#06B0F0" stroke-width="2"/><circle cx="59" cy="58" r="2" fill="#fff" stroke="#99DFF9" stroke-width="2"/><circle cx="36" cy="35" r="2" fill="#fff" stroke="#06B0F0" stroke-width="2"/><circle cx="3" cy="115" r="2" fill="#fff" stroke="#06B0F0" stroke-width="2"/><circle cx="116" cy="225" r="2" fill="#fff" stroke="#06B0F0" stroke-width="2"/><circle cx="227" cy="115" r="2" fill="#fff" stroke="#06B0F0" stroke-width="2"/></svg>