<svg width="230" height="228" viewBox="0 0 230 228" fill="none" xmlns="http://www.w3.org/2000/svg"><path d="m101.722 5.03-57.4 24.31A26 26 0 0 0 30.43 43.36L16.75 76.5 6.377 101.63a26 26 0 0 0 7.613 30.079l44.597 36.326a26 26 0 0 1 4.294 4.445l32.214 42.464c10.462 13.79 31.226 13.699 41.566-.183l31.111-41.77a26 26 0 0 1 5.207-5.235l42.744-32.205c13.72-10.337 13.823-30.9.207-41.374L173.788 61.76a26 26 0 0 1-4.134-3.98l-37.806-45.438a26 26 0 0 0-30.126-7.312" fill="#06B0F0"/><path d="m176.977 198.739-56.791-5.345a10 10 0 0 1-6.833-3.66L89.591 160.41c-5.858-7.229-12.795-13.522-20.672-18.473-5.497-3.454-11.285-6.989-13.419-7.937-1.304-.58-4.33-2.125-7.97-4.028-11.183-5.846-14-20.523-6.044-30.318 2.697-3.322 5.091-6.305 6.514-8.154 2.547-3.312 4.576-12.724 5.953-21.16 1.468-8.996 8.338-16.315 17.345-17.71l7.968-1.235a67 67 0 0 0 22.983-8.037l9.904-5.66a20 20 0 0 1 8.262-2.566L170 31l10.275-.497c10.94-.53 19.812 8.751 18.792 19.656l-4.329 46.263a200 200 0 0 0-.01 37.157l4.037 43.396c1.161 12.479-9.31 22.938-21.788 21.764" fill="#99DFF9"/><circle cx="194" cy="193" r="1.5" fill="#fff" stroke="#99DFF9"/><circle cx="116" cy="36" r="2" fill="#fff" stroke="#99DFF9" stroke-width="2"/><circle cx="195" cy="36" r="2" fill="#fff" stroke="#99DFF9" stroke-width="2"/><circle cx="194" cy="115" r="2" fill="#fff" stroke="#99DFF9" stroke-width="2"/><circle cx="37" cy="115" r="2" fill="#fff" stroke="#99DFF9" stroke-width="2"/><circle cx="116" cy="193" r="2" fill="#fff" stroke="#99DFF9" stroke-width="2"/><circle cx="116" cy="3" r="2" fill="#fff" stroke="#06B0F0" stroke-width="2"/><circle cx="60" cy="171" r="2" fill="#fff" stroke="#06B0F0" stroke-width="2"/><circle cx="59" cy="58" r="2" fill="#fff" stroke="#99DFF9" stroke-width="2"/><circle cx="36" cy="35" r="2" fill="#fff" stroke="#06B0F0" stroke-width="2"/><circle cx="3" cy="115" r="2" fill="#fff" stroke="#06B0F0" stroke-width="2"/><circle cx="116" cy="225" r="2" fill="#fff" stroke="#06B0F0" stroke-width="2"/><circle cx="227" cy="115" r="2" fill="#fff" stroke="#06B0F0" stroke-width="2"/></svg>