<svg xmlns="http://www.w3.org/2000/svg" xml:space="preserve" width="890" height="778" overflow="hidden"><defs><clipPath id="a"><path d="M405 4232h890v778H405z"/></clipPath></defs><g fill-rule="evenodd" clip-path="url(#a)" transform="translate(-405 -4232)"><path fill="#00B0F0" d="M1204 4964.5c0-25.13 20.37-45.5 45.5-45.5s45.5 20.37 45.5 45.5-20.37 45.5-45.5 45.5-45.5-20.37-45.5-45.5m-799-687c0-25.13 20.371-45.5 45.5-45.5s45.5 20.37 45.5 45.5-20.371 45.5-45.5 45.5-45.5-20.37-45.5-45.5"/><path fill="#99DFF9" d="M519 4585.5c0-25.13 20.147-45.5 45-45.5s45 20.37 45 45.5-20.147 45.5-45 45.5-45-20.37-45-45.5m457 122c0-25.13 20.147-45.5 45-45.5 24.85 0 45 20.37 45 45.5s-20.15 45.5-45 45.5c-24.853 0-45-20.37-45-45.5"/><path fill="#00B0F0" d="M709 4851.5c0-25.13 20.371-45.5 45.5-45.5s45.5 20.37 45.5 45.5-20.371 45.5-45.5 45.5-45.5-20.37-45.5-45.5m299-436c0-25.13 20.37-45.5 45.5-45.5s45.5 20.37 45.5 45.5-20.37 45.5-45.5 45.5-45.5-20.37-45.5-45.5"/><path fill="#99DFF9" d="M724 4329.5c0-25.13 20.371-45.5 45.5-45.5s45.5 20.37 45.5 45.5-20.371 45.5-45.5 45.5-45.5-20.37-45.5-45.5"/></g></svg>