<svg xmlns="http://www.w3.org/2000/svg" xml:space="preserve" width="630" height="550" overflow="hidden"><defs><clipPath id="a"><path d="M2807 237h630v550h-630z"/></clipPath></defs><g fill="#FFF" fill-rule="evenodd" clip-path="url(#a)" transform="translate(-2807 -237)"><path fill-opacity=".8" d="M3373 755c0-17.673 14.33-32 32-32s32 14.327 32 32-14.33 32-32 32-32-14.327-32-32m-566-486c0-17.673 14.55-32 32.5-32s32.5 14.327 32.5 32-14.55 32-32.5 32-32.5-14.327-32.5-32"/><path fill-opacity=".502" d="M2888 487c0-17.673 14.33-32 32-32s32 14.327 32 32-14.33 32-32 32-32-14.327-32-32m323 86c0-17.673 14.33-32 32-32s32 14.327 32 32-14.33 32-32 32-32-14.327-32-32"/><path fill-opacity=".8" d="M3022 675c0-17.673 14.55-32 32.5-32s32.5 14.327 32.5 32-14.55 32-32.5 32-32.5-14.327-32.5-32m212-308c0-17.673 14.33-32 32-32s32 14.327 32 32-14.33 32-32 32-32-14.327-32-32"/><path fill-opacity=".502" d="M3033 306c0-17.673 14.33-32 32-32s32 14.327 32 32-14.33 32-32 32-32-14.327-32-32"/></g></svg>