<svg xmlns="http://www.w3.org/2000/svg" xml:space="preserve" overflow="hidden" transform="scale(-1 1)" viewBox="0 0 592 528"><g fill="#FFF" fill-rule="evenodd"><path fill-opacity=".8" d="M58 333c32.03 0 58 25.968 58 58v79c0 32.032-25.97 58-58 58S0 502.032 0 470v-79c0-32.032 25.97-58 58-58"/><path fill-opacity=".502" d="M533.5 0C565.81 0 592 26.191 592 58.5v411c0 32.309-26.19 58.501-58.5 58.501V528c-32.31 0-58.5-26.192-58.5-58.5v-411C475 26.191 501.19 0 533.5 0"/><path fill-opacity=".8" d="M216.5 161c32.31 0 58.5 26.191 58.5 58.5v77c0 32.309-26.19 58.5-58.5 58.5S158 328.809 158 296.5v-77c0-32.309 26.19-58.5 58.5-58.5m165-161C413.81 0 440 26.191 440 58.5v78c0 32.309-26.19 58.5-58.5 58.5S323 168.809 323 136.5v-78C323 26.191 349.19 0 381.5 0"/></g></svg>