<svg xmlns="http://www.w3.org/2000/svg" xml:space="preserve" width="1066" height="950" overflow="hidden"><g fill-rule="evenodd"><path fill="#00B0F0" d="M105 599c57.99 0 105 47.01 105 105v140c0 57.99-47.01 105-105 105S0 901.99 0 844V704c0-57.99 47.01-105 105-105"/><path fill="#99DFF9" d="M959.5 0c58.27 0 105.5 47.234 105.5 105.5v738c0 58.27-47.23 105.5-105.5 105.5S854 901.77 854 843.5v-738C854 47.234 901.23 0 959.5 0"/><path fill="#00B0F0" d="M390 289c57.99 0 105 47.01 105 105v140c0 57.99-47.01 105-105 105s-105-47.01-105-105V394c0-57.99 47.01-105 105-105M687 0c57.99 0 105 47.01 105 105v141c0 57.99-47.01 105-105 105s-105-47.01-105-105V105C582 47.01 629.01 0 687 0"/></g></svg>