<?xml version="1.0" encoding="UTF-8"?> <svg xmlns="http://www.w3.org/2000/svg" width="1214" height="413" viewBox="0 0 1214 413" fill="none"><g clip-path="url(#clip0_729_33)"><mask id="mask0_729_33" style="mask-type:luminance" maskUnits="userSpaceOnUse" x="0" y="0" width="1214" height="413"><path d="M1214 0H0V413H1214V0Z" fill="white"></path></mask><g mask="url(#mask0_729_33)"><path fill-rule="evenodd" clip-rule="evenodd" d="M409 90.278C409 42.688 370.12 4 322.295 4H89.705C41.88 4 3 42.688 3 90.278V321.722C3 369.312 41.88 408 89.705 408H322.295C370.12 408 409 369.312 409 321.722V90.278ZM204.28 359.383C164.712 359.383 118.951 342.607 104.844 311.451L142.692 265.915C159.551 287.142 185.012 296.729 205.656 296.729C223.203 296.729 233.525 287.827 233.525 274.132C233.525 230.308 111.037 235.786 111.037 141.292C111.037 96.098 147.165 57.068 205.656 57.068C243.504 57.068 273.781 69.736 292.017 89.251L256.234 139.237C243.159 127.254 233.525 119.722 211.849 119.722C193.27 119.722 182.603 127.939 182.603 141.292C182.603 189.908 305.091 177.925 305.091 273.105C304.748 324.461 260.707 359.383 204.28 359.383Z" fill="white"></path><path fill-rule="evenodd" clip-rule="evenodd" d="M449 70H497.029V290.717C497.029 311.933 502.175 321.172 513.497 321.172C521.044 321.172 527.219 317.75 533.052 313.644L543 350.259C532.022 359.156 515.898 366 493.255 366C464.438 366 449 348.548 449 310.222V70Z" fill="white"></path><path fill-rule="evenodd" clip-rule="evenodd" d="M594.201 79C607.929 79 622 89.937 622 107.027C622 126.166 608.272 137.104 594.201 137.104C577.728 137.104 564 126.166 564 107.027C564 89.937 577.728 79 594.201 79ZM568.805 174.359H616.852V362H568.805V174.359Z" fill="white"></path><path fill-rule="evenodd" clip-rule="evenodd" d="M796.91 342.124C784.2 355.44 767.02 365 742.97 365C689.04 365 654 327.101 654 270.081C654 211.013 696.597 169.699 757.4 169.699C774.23 169.699 786.26 172.772 796.91 178.918V70H845V361.586H796.91V342.124ZM796.91 301.152V226.036C784.88 218.524 772.52 214.768 759.46 214.768C730.95 214.768 705.529 233.889 705.529 268.374C705.529 301.835 727.171 320.272 752.94 320.272C770.45 320.272 785.91 312.078 796.91 301.152Z" fill="white"></path><path fill-rule="evenodd" clip-rule="evenodd" d="M1048.54 342.743C1029.64 358.476 1002.83 366 976.37 366C915.55 366 875 326.669 875 267.5C875 212.778 912.8 169 974.65 169C1023.45 169 1064 203.543 1064 256.213C1064 267.842 1063.31 275.024 1060.91 282.206H924.83C928.95 310.594 951.63 325.984 981.53 325.984C1004.55 325.984 1023.79 317.776 1034.79 308.884L1048.54 342.743ZM923.11 250.399H1015.89C1016.23 227.484 1000.43 209.358 972.59 209.358C943.73 209.358 928.26 225.774 923.11 250.399Z" fill="white"></path><path fill-rule="evenodd" clip-rule="evenodd" d="M1091 174.075H1139.26V192.526C1148.23 180.567 1159.95 171 1182.7 171C1198.21 171 1205.8 173.392 1212 178.176L1194.76 223.277C1185.46 217.81 1180.63 216.102 1170.29 216.102C1153.4 216.102 1144.78 225.327 1139.26 236.261V362H1091V174.075Z" fill="white"></path></g></g><defs><clipPath id="clip0_729_33"><rect width="1214" height="413" fill="white"></rect></clipPath></defs></svg> 